<?xml version="1.0" encoding="utf-8"?>
<!-- Generator: Adobe Illustrator 23.0.4, SVG Export Plug-In . SVG Version: 6.00 Build 0)  -->
<svg version="1.1" id="btn-loading" xmlns="http://www.w3.org/2000/svg" xmlns:xlink="http://www.w3.org/1999/xlink" x="0px"
	 y="0px" viewBox="0 0 19 20" style="enable-background:new 0 0 19 20;" xml:space="preserve">
<style type="text/css">
	.st0{fill-rule:evenodd;clip-rule:evenodd;fill:#FFFFFF;}
</style>
<g>
	<path id="btn-loading-a" class="st0" d="M10,18.6c-5.1,0-9.1-4.4-8.5-9.6c0.4-3.9,3.7-7.1,7.6-7.5c3.5-0.4,6.7,1.4,8.3,4.2
		c0.1,0.2,0.4,0.4,0.6,0.4c0.5,0,0.9-0.6,0.6-1.1C16.7,1.7,13-0.4,8.8,0.1C4.2,0.6,0.6,4.3,0.1,8.8c-0.7,6,4,11.2,9.9,11.2
		c3.7,0,6.9-2,8.7-5c0.3-0.5-0.1-1.1-0.6-1.1c-0.3,0-0.5,0.1-0.6,0.4C15.9,16.8,13.2,18.6,10,18.6"/>
</g>
</svg>
