<?xml version="1.0" encoding="utf-8"?>
<!-- Generator: Adobe Illustrator 23.0.4, SVG Export Plug-In . SVG Version: 6.00 Build 0)  -->
<svg version="1.1" id="Down-arrow" xmlns="http://www.w3.org/2000/svg" xmlns:xlink="http://www.w3.org/1999/xlink" x="0px" y="0px"
	 viewBox="0 0 16 24" style="enable-background:new 0 0 16 24;" xml:space="preserve">
<style type="text/css">
	.st0{fill-rule:evenodd;clip-rule:evenodd;fill:#FFFFFF;}
</style>
<g>
	<path class="st0" d="M7.8,9.2C7.5,9.2,7.2,9.1,7,8.9L0.4,2.3c-0.5-0.5-0.5-1.3,0-1.7c0.2-0.2,0.5-0.4,0.9-0.4
		c0.3,0,0.6,0.1,0.9,0.4l5.7,5.7l5.7-5.7c0.2-0.2,0.5-0.4,0.9-0.4s0.6,0.1,0.9,0.4c0.5,0.5,0.5,1.3,0,1.7L8.7,8.9
		C8.5,9.1,8.2,9.2,7.8,9.2z"/>
	<path class="st0" d="M7.8,16.7c-0.3,0-0.6-0.1-0.9-0.4L0.4,9.8c-0.5-0.5-0.5-1.3,0-1.7c0.2-0.2,0.5-0.4,0.9-0.4
		c0.3,0,0.6,0.1,0.9,0.4l5.7,5.7L13.5,8c0.2-0.2,0.5-0.4,0.9-0.4S15,7.7,15.3,8c0.5,0.5,0.5,1.3,0,1.7l-6.6,6.6
		C8.5,16.6,8.2,16.7,7.8,16.7z"/>
	<path class="st0" d="M7.8,23.9c-0.3,0-0.6-0.1-0.9-0.4L0.4,17c-0.5-0.5-0.5-1.3,0-1.7c0.2-0.2,0.5-0.4,0.9-0.4
		c0.3,0,0.6,0.1,0.9,0.4L7.8,21l5.7-5.7c0.2-0.2,0.5-0.4,0.9-0.4s0.6,0.1,0.9,0.4c0.5,0.5,0.5,1.3,0,1.7l-6.6,6.6
		C8.5,23.8,8.2,23.9,7.8,23.9z"/>
</g>
</svg>
