<?xml version="1.0" encoding="utf-8"?>
<!-- Generator: Adobe Illustrator 23.0.4, SVG Export Plug-In . SVG Version: 6.00 Build 0)  -->
<svg version="1.1" id="icon_x5F_app_x5F_10bet" xmlns="http://www.w3.org/2000/svg" xmlns:xlink="http://www.w3.org/1999/xlink"
	 x="0px" y="0px" viewBox="0 0 192 192" style="enable-background:new 0 0 192 192;" xml:space="preserve">
<style type="text/css">
	.st0{fill-rule:evenodd;clip-rule:evenodd;fill:#053160;}
	.st1{filter:url(#Adobe_OpacityMaskFilter);}
	.st2{fill-rule:evenodd;clip-rule:evenodd;fill:#FFFFFF;}
	.st3{mask:url(#icon_app_10bet-b_1_);fill-rule:evenodd;clip-rule:evenodd;fill:#FFFFFC;}
	.st4{fill-rule:evenodd;clip-rule:evenodd;fill:#FFFFFC;}
	.st5{fill-rule:evenodd;clip-rule:evenodd;fill:#E73349;}
</style>
<g>
	<path class="st0" d="M30,0h132c16.6,0,30,13.4,30,30v132c0,16.6-13.4,30-30,30H30c-16.6,0-30-13.4-30-30V30C0,13.4,13.4,0,30,0z"/>
	<g transform="translate(21 53)">
		<g transform="translate(0 .066)">
			<defs>
				<filter id="Adobe_OpacityMaskFilter" filterUnits="userSpaceOnUse" x="0" y="0" width="112.2" height="85.5">
					<feColorMatrix  type="matrix" values="1 0 0 0 0  0 1 0 0 0  0 0 1 0 0  0 0 0 1 0"/>
				</filter>
			</defs>
			<mask maskUnits="userSpaceOnUse" x="0" y="0" width="112.2" height="85.5" id="icon_app_10bet-b_1_">
				<g class="st1">
					<polygon id="icon_app_10bet-a_1_" class="st2" points="0,0 112.2,0 112.2,85.5 0,85.5 					"/>
				</g>
			</mask>
			<path class="st3" d="M72.5,78.3V64.5h5.7v-6.2H60.8v6.3h5.7v13.7H72.5z M67.6,42.4v-2.2h10.5v-5.8H60.9v21.7h17.3v-5.9H67.6v-2
				H77v-5.8H67.6z M76.9,20.9c0.1-0.1,0.1-0.1,0.2-0.2c2.9-2.9,2.1-7.7-1.5-9.5c-1.3-0.6-2.7-0.9-4.1-0.9c-3.3,0-6.7,0-10,0
				c-0.2,0-0.4,0-0.6,0v21.7c0.1,0,0.2,0,0.3,0c3.7,0,7.3,0,11,0c1.8,0,3.5-0.5,4.9-1.7C79.5,28.3,80,23.4,76.9,20.9L76.9,20.9z
				 M0,2.1h29.8v24.5C34.5,16,42,8.2,52.7,3.6C63.4-1,74.3-1.1,85.1,3.1c16.9,6.6,27.6,23.1,27,41c-0.6,19.3-13.8,35.1-31.2,39.8
				c-10.4,2.8-20.6,1.9-30.3-2.8C41,76.3,34.1,68.8,29.8,58.9v24.5H0V2.1z"/>
		</g>
		<path class="st4" d="M67.6,26.5v-2.6c1.2,0,2.5-0.1,3.7,0c0.7,0.1,1,0.6,1,1.3c0,0.7-0.4,1.1-1.1,1.2c-0.2,0-0.4,0-0.6,0
			C69.6,26.5,68.6,26.5,67.6,26.5 M67.6,18.4V16c1.1,0,2.3-0.1,3.4,0c0.7,0,1,0.5,1,1.2c0,0.7-0.3,1.2-1.1,1.2
			C69.9,18.4,68.8,18.4,67.6,18.4"/>
		<path class="st5" d="M145.1,64.5c0.3,0,0.5,0,0.8,0c0.6,0.1,0.9-0.1,0.8-0.8c0-0.1,0-0.3,0-0.4c0-0.4-0.1-0.6-0.6-0.6
			c-0.6,0-1.1,0-1.7,0c-0.8,0-0.8,0-0.8,0.8c0,0.9,0,0.9,0.9,0.9C144.6,64.5,144.8,64.5,145.1,64.5 M138.2,64.5c0.1,0,0.3,0,0.4,0
			c1.2,0,1.1,0.2,1.1-1.2c0-0.4-0.2-0.6-0.6-0.6c-0.6,0-1.1,0-1.7,0c-0.9,0-0.9,0-0.9,0.9c0,0.6,0.1,0.9,0.8,0.8
			C137.7,64.4,137.9,64.5,138.2,64.5 M138.1,59.4c0.1,0,0.3,0,0.4,0c1.3,0,1.1,0.2,1.2-1.2c0-0.4-0.2-0.5-0.5-0.5
			c-0.6,0-1.1,0-1.7,0c-0.9,0-0.9,0-0.9,0.9c0,0.6,0.2,0.9,0.8,0.8C137.6,59.4,137.9,59.4,138.1,59.4 M145,59.4c0.1,0,0.3,0,0.4,0
			c1.2,0,1.2,0,1.2-1.2c0-0.4-0.2-0.5-0.6-0.5c-0.6,0-1.1,0-1.7,0c-0.9,0-0.9,0-0.9,0.9c0,0.6,0.2,0.9,0.8,0.8
			C144.5,59.4,144.8,59.4,145,59.4 M150.4,69.3h-3.7c0-0.3,0-0.6,0-0.9c0-0.5-0.1-0.7-0.6-0.7c-0.6,0-1.2,0-1.9,0
			c-0.5,0-0.7,0.1-0.6,0.6c0,0.3,0,0.6,0,0.9h-3.8v-1.5c-1,0-1.9,0-2.8,0c-0.1,0-0.3,0.4-0.3,0.6c0,1.1,0,0.9-1,0.9
			c-0.9,0-1.9,0-2.8,0c0-0.3,0-0.4,0-0.6c0-4.5,0-9.1,0-13.6c0-0.5,0.1-0.7,0.7-0.7c1.9,0,3.7,0,5.6,0c0.8,0,0.6-0.5,0.7-1
			c0-0.5-0.1-0.8-0.7-0.7c-1.8,0-3.7,0-5.5,0c-0.6,0-0.8-0.2-0.8-0.8c0-0.6,0-1.2,0-1.9c0-0.5,0.1-0.7,0.6-0.7c1.9,0,3.8,0,5.6,0
			c0.5,0,0.7-0.2,0.7-0.7c0-1.1,0-2.3,0-3.5h3.8c0,1,0,2,0,3c0,1.3-0.1,1.2,1.2,1.2c0.7,0,1.3,0,2,0l0.1-0.2
			c-0.6-0.4-1.2-0.9-1.9-1.4c0.8-0.9,1.5-1.7,2.3-2.6c1.1,0.7,2.1,1.5,3.2,2.2c-0.5,0.6-1,1.2-1.6,1.9c0.7,0,1.2,0.1,1.7,0.1v3.2
			c-0.3,0-0.5,0-0.8,0c-1.8,0-3.7,0-5.5,0c-0.7,0-0.7,0.3-0.7,0.8c0,0.5,0,0.9,0.7,0.9c1.9,0,3.8,0,5.6,0c0.4,0,0.6,0.1,0.6,0.5
			c0,4.7,0,9.4,0,14.1C150.4,69.1,150.4,69.2,150.4,69.3 M132.5,38.5v-0.9c0-5.5,0-10.9,0-16.4c0-1.1,0-1.1-1.1-1.1
			c-4.1,0-8.3,0-12.4,0c-0.6,0-0.8-0.2-0.8-0.8c0.1-0.9,0-1.9,0-2.9c0.3,0,0.6,0,0.8,0c4.2,0,8.4,0,12.6,0c0.9,0,0.9,0,0.9-0.9
			c0-4.2,0-8.4,0-12.6V2.1h3.7c0,0.3,0,0.6,0,0.8c0,4.2,0,8.4,0,12.6c0,0.9,0,0.9,0.9,0.9c4.2,0,8.3,0,12.5,0h0.9c0,1.2,0,2.3,0,3.4
			c0,0.1-0.2,0.2-0.3,0.3c-0.2,0-0.4,0-0.6,0c-4,0-7.9,0-11.9,0c-1.7,0-1.5-0.2-1.5,1.5c0,5.4,0,10.7,0,16.1c0,0.8,0,0.8-0.8,0.8
			C134.5,38.5,133.5,38.5,132.5,38.5 M126.7,83.4h-3.8v-0.8c0-8,0-16,0-24c0-0.9,0-0.9-0.9-0.9c-1.2,0-2.5,0-3.8,0c0-1,0-2,0-3
			c0-0.1,0.3-0.3,0.5-0.3c1.2,0,2.3,0,3.5,0c0.6,0,0.7-0.2,0.7-0.7c0-2.5,0-5.1,0-7.6v-0.8h3.8V46c0,2.5,0,5.1,0,7.6
			c0,0.6,0.2,0.8,0.8,0.8c1.1,0,2.2,0,3.3,0c0.5,0,0.6,0.2,0.6,0.6c0,0.9,0,1.7,0,2.7c-1.3,0-2.6,0-3.8,0c-0.9,0-0.9,0-0.9,0.9
			c0,8,0,16,0,24V83.4z M137.3,80.6c-1.5-1-3-2-4.5-3.1c0.6-0.7,1.2-1.4,1.9-2.2c-0.7,0-1.3-0.1-1.9-0.1V72c0.2,0,0.5,0,0.7,0
			c2.9,0,5.8,0,8.6,0c0.9,0,0.9,0,1-0.9c0-0.1,0-0.3,0-0.4h3.7c0,0.1,0.1,0.1,0.1,0.2C147,72,147,72,148.2,72c0.7,0,1.5,0,2.3,0
			c0,1,0,2,0,3c0,0.1-0.3,0.3-0.5,0.3c-0.8,0-1.6,0-2.4,0c-0.5,0-0.7,0.2-0.7,0.7c0,1.1,0,2.2,0,3.3c0.1,1.9-1,4-4,4.2
			c-0.8,0.1-1.7,0-2.5,0c-0.2,0-0.4-0.1-0.5-0.3c-0.4-0.9-0.7-1.9-1.1-3c0.5,0,0.9,0,1.3,0c0.6,0,1.2,0,1.8-0.1
			c0.8-0.1,1.2-0.6,1.2-1.4c0-1,0-1.9,0-2.9c0-0.3-0.1-0.5-0.5-0.5c-2.1,0-4.2,0-6.3,0c-0.1,0-0.2,0-0.4,0.1
			c1.3,0.9,2.4,1.7,3.7,2.6C138.9,78.9,138.1,79.7,137.3,80.6"/>
	</g>
</g>
</svg>
