<?xml version="1.0" encoding="utf-8"?>
<!-- Generator: Adobe Illustrator 24.3.0, SVG Export Plug-In . SVG Version: 6.00 Build 0)  -->
<svg version="1.1" id="SBet" xmlns="http://www.w3.org/2000/svg" xmlns:xlink="http://www.w3.org/1999/xlink" x="0px" y="0px"
	 viewBox="0 0 150 150" style="enable-background:new 0 0 150 150;" xml:space="preserve">
<linearGradient id="SVGID_1_" gradientUnits="userSpaceOnUse" x1="75" y1="152" x2="75" y2="2" gradientTransform="matrix(1 0 0 -1 0 152)">
	<stop  offset="0" style="stop-color:#FFFFFF"/>
	<stop  offset="0.22" style="stop-color:#C5E3FC"/>
	<stop  offset="0.84" style="stop-color:#BFE0FB"/>
	<stop  offset="1" style="stop-color:#AFD3F0"/>
</linearGradient>
<path style="fill:url(#SVGID_1_);" d="M115,150H35c-19.2,0-35-15.8-35-35V35C0,15.8,15.8,0,35,0h80c19.2,0,35,15.8,35,35v80
	C150,134.2,134.2,150,115,150z"/>
<linearGradient id="SVGID_2_" gradientUnits="userSpaceOnUse" x1="75" y1="149" x2="75" y2="5" gradientTransform="matrix(1 0 0 -1 0 152)">
	<stop  offset="0" style="stop-color:#DBEEFD"/>
	<stop  offset="1" style="stop-color:#D8ECFD"/>
</linearGradient>
<path style="fill:url(#SVGID_2_);" d="M112.5,147h-75C18.6,147,3,131.4,3,112.5v-75C3,18.6,18.6,3,37.5,3h75
	C131.4,3,147,18.6,147,37.5v75C147,131.4,131.4,147,112.5,147z"/>
<g>
	<g>
		
			<linearGradient id="SVGID_3_" gradientUnits="userSpaceOnUse" x1="35.059" y1="76.95" x2="114.9436" y2="76.95" gradientTransform="matrix(1 0 0 -1 0 152)">
			<stop  offset="0" style="stop-color:#00D9FF"/>
			<stop  offset="0.5" style="stop-color:#0088FF"/>
			<stop  offset="1" style="stop-color:#54D2FD"/>
		</linearGradient>
		<path style="fill:url(#SVGID_3_);" d="M112.6,24.1L69.8,39.7l0,0c-2.9,1.1-5.5,2.5-7.7,4.2l0,0c-3.8,3.1-6.6,7.3-7.9,12.3
			c-0.2,0.6-0.3,1.2-0.4,1.8c-0.9,5.2-0.1,10.2,2.1,14.6c0.9,1.8,4.1,6.9,6.2,9.9c0.7,1,0.3,2.5-0.9,2.9L51.3,89l-9,3.3
			c-0.6,0.2-1,0.7-1.1,1.3l-6.1,30.2c-0.3,1.5,1.1,2.7,2.5,2.2l42.6-15.5c3.8-1.4,7.1-3.4,9.6-5.8c0,0,0,0,0.1,0
			c4-3.4,6.9-8.2,7.9-13.8c0.9-5.2,0.1-10.2-2.1-14.6c-1.6-3.3-4.1-6.2-7.1-8.4c-0.9-0.7-2-1.3-3-1.9l1.5-0.5l13.2-4.8l7.3-2.7
			c0.6-0.2,1-0.7,1.1-1.3l6.2-30.4C115.2,24.8,113.9,23.6,112.6,24.1z"/>
		
			<linearGradient id="SVGID_4_" gradientUnits="userSpaceOnUse" x1="93.1562" y1="107.6527" x2="58.4706" y2="47.5753" gradientTransform="matrix(1 0 0 -1 0 152)">
			<stop  offset="0" style="stop-color:#00D9FF"/>
			<stop  offset="1" style="stop-color:#0088FF"/>
		</linearGradient>
		<path style="fill:url(#SVGID_4_);" d="M88.6,67.8c-0.9-0.7-2-1.3-3-1.9l1.5-0.5l13.2-4.8C99.6,50,91.8,40.9,81,38.9
			c-3.9-0.7-7.7-0.4-11.2,0.8l0,0c-2.9,1.1-5.5,2.5-7.7,4.2l0,0c-3.8,3.1-6.6,7.3-7.9,12.3c-0.2,0.6-0.3,1.2-0.4,1.8
			c-0.9,5.2-0.1,10.2,2.1,14.6c1.2,2.4,6.3,10.3,7.7,11.9L51.3,89c1,10.2,8.7,18.9,19.3,20.8c7.1,1.3,14.1-0.8,19.2-5.2
			c0,0,0,0,0.1,0c4-3.4,6.9-8.2,7.9-13.8c0.9-5.2,0.1-10.2-2.1-14.6C94,72.9,91.6,70,88.6,67.8z"/>
	</g>
</g>
</svg>
