<?xml version="1.0" encoding="utf-8"?>
<!-- Generator: Adobe Illustrator 23.0.4, SVG Export Plug-In . SVG Version: 6.00 Build 0)  -->
<svg version="1.1" id="Juventus" xmlns="http://www.w3.org/2000/svg" xmlns:xlink="http://www.w3.org/1999/xlink" x="0px" y="0px"
	 viewBox="0 0 172 68" style="enable-background:new 0 0 172 68;" xml:space="preserve">
<style type="text/css">
	.st0{fill-rule:evenodd;clip-rule:evenodd;fill:#FFFFFF;}
	.st1{fill:#FFFFFF;}
</style>
<g transform="translate(0 -2)">
	<path class="st0" d="M65.8,34.2v18.3c0,4.7-2.7,7.7-8.4,7.7h-0.8v-4h0.7c2.7,0,4.1-1.1,4.1-3.8V38h-4v-3.9H65.8z M73.7,56.6h4V34.2
		H82v22.1c0,2.7-1.5,4.2-4.3,4.2h-4c-2.9,0-4.3-1.4-4.3-4.2V34.2h4.3V56.6z M93.9,50.1V34.2h4.3v16.1c0,6.4-3.8,10-10.6,10h-2.1v-26
		h4.3V56h0.2C92.3,56,93.9,53.4,93.9,50.1z M106,38.2V45h5l-0.7,3.8H106v7.4h6.4l-0.7,4h-9.9v-26h9.6l0.7,4H106z M123.3,34.2h4.1v26
		h-4.1v-8.9l-4.1-8.9H119v17.8h-4.1v-26h4.1l4.1,9.6h0.3V34.2z M142,38.3h-4.2v21.9h-4.3V38.3h-4.2l0.7-4.1h11.2L142,38.3z
		 M148,56.6h4V34.2h4.3v22.1c0,2.7-1.5,4.2-4.3,4.2h-4c-2.9,0-4.3-1.4-4.3-4.2V34.2h4.3V56.6z M163.9,51.6v5.2h3.7v-3.6
		c0-1.8-0.4-2.5-1.8-3.4l-3.9-2.6c-1.5-1-2.2-2.7-2.2-4.1v-4.9c0-2.7,1.8-4.2,4-4.2h4c2.9,0,4,1.4,4,4.2v4.1l-4.2,1.1v-5.8h-3.7v3.9
		c0,1.3,0.4,2.1,1.7,2.9l3.7,2.4c1.6,1.1,2.5,2.6,2.5,4.6v5.1c0,2.8-1.8,3.9-4.1,3.9H164c-2.9,0-4.3-1.1-4.3-3.9v-4.9H163.9z
		 M25.9,2H0v7.6h17.2v24.2c0,11-0.7,12.1-15.2,18.5c1,2.5,2.5,5,4.4,7.3c16.4-7.3,19.5-11,19.5-23.5V2z M34.3,37.7
		c0,16.5-7,20.7-21.3,27.6c1.8,1.2,4.3,2.7,8.5,4.7C32.5,64.9,43,58.1,43,40.1V2h-8.7L34.3,37.7L34.3,37.7z"/>
	<path class="st1" d="M65.7,4.7h1.4c2.4,2.5,5.2,4.4,8.3,5.8l-1,1.8c-0.9-0.4-1.8-0.9-2.6-1.4v1.7h-4.3v2.7h5.3v1.9h-5.3V20h7.1v2
		H58.4v-2h7.1v-2.8h-5.4v-1.9h5.4v-2.7h-4.3v-1.7c-0.9,0.5-1.8,1-2.7,1.5l-1-1.8C60.7,8.9,63.5,7,65.7,4.7z M61.4,10.6h10.1
		c-1.9-1.2-3.6-2.6-5-4.1C65,8,63.3,9.4,61.4,10.6z M83.3,7.8h4.2V4.8h1.9v3.1h2.4c-0.5-0.6-1.1-1.2-1.9-1.8L91,4.9
		c1,0.7,1.7,1.4,2.4,2.1l-0.7,0.7h1.1v1.9h-4.3v1.7c0.2,0.7,0.5,1.4,0.8,2c0.7-0.9,1.4-1.8,2-2.8l1.5,1.1c-0.9,1.3-1.7,2.5-2.6,3.4
		c0.9,1.6,2.1,3,3.5,4.2L93.2,21c-1.6-1.5-2.8-3.4-3.8-5.4v4.9c0,1.3-0.7,1.9-2,1.9h-2L85,20.4c0.6,0.1,1.2,0.1,1.8,0.1
		c0.5,0,0.7-0.2,0.7-0.7v-3.6c-1.2,1.6-2.5,3-4,4.1l-1-1.7c1.9-1.3,3.5-2.9,5-5V9.7h-4.2V7.8z M84.8,10.8c0.8,1.2,1.5,2.3,1.9,3.3
		l-1.4,1c-0.5-1-1.2-2.1-2.1-3.3L84.8,10.8z M77.1,11.6h2V7.7h-2.2V5.8h6.2v1.9h-2v3.9h1.6v1.9h-1.6v3.1c0.7-0.3,1.4-0.6,2-0.9v1.9
		c-1.9,0.9-3.9,1.7-6.1,2.4l-0.5-2c0.8-0.2,1.7-0.4,2.5-0.7v-3.9h-2V11.6z M98.4,22.3h-1.7l-0.4-1.9c0.5,0.1,1,0.1,1.4,0.1
		c0.4,0,0.7-0.2,0.7-0.7v-3.9c-0.7,0.3-1.4,0.5-2.1,0.8l-0.5-2c0.9-0.2,1.7-0.5,2.6-0.8V10h-2.1V8h2.1V4.7h2V8h2V10h-2v3
		c0.6-0.3,1.2-0.7,1.9-1v2.1c-0.6,0.3-1.2,0.7-1.9,1v5.4C100.3,21.6,99.7,22.3,98.4,22.3z M102.8,12.7h9.5v1.9
		c-0.5,1.7-1.4,3.1-2.6,4.3c1.2,0.7,2.6,1.4,4.3,1.9l-1.1,1.7c-1.8-0.7-3.4-1.5-4.7-2.4c-1.5,1-3.2,1.9-5.3,2.5l-1.1-1.7
		c1.9-0.5,3.5-1.2,4.8-2.1c-1.3-1.2-2.2-2.6-2.7-4.1h-1V12.7z M105.6,14.7c0.4,1.1,1.2,2.1,2.3,3c1-0.9,1.8-1.9,2.3-3H105.6z
		 M104,5.3h7.1v4c0,0.4,0.2,0.6,0.8,0.6h1.4v1.9h-1.9c-1.5,0-2.2-0.7-2.2-2V7.2H106V8c0,1.9-0.9,3.3-2.7,4.4l-1.3-1.6
		c1.4-0.6,2.1-1.5,2.1-2.6V5.3z M117.2,4.9c1.3,1,2.4,1.9,3.3,2.8l-1.4,1.4c-0.8-0.9-1.9-1.9-3.4-2.9L117.2,4.9z M116.7,9.4
		c1.2,1,2.3,1.9,3.2,2.9l-1.4,1.4c-0.7-0.9-1.8-1.9-3.2-2.9L116.7,9.4z M118.6,14.8l1.8,0.7c-0.8,2.4-1.8,4.7-2.9,6.8l-2-0.9
		C116.7,19.3,117.7,17.1,118.6,14.8z M120.9,7.7h4.8c-0.3-0.9-0.7-1.8-1.1-2.6l1.9-0.5c0.5,1.2,1,2.2,1.2,3.1h4.7v2h-4.7v3.9h4.2
		v1.9h-4.2v4.4h5.1v2h-12.3v-2h5.2v-4.4h-4.2v-1.9h4.2V9.7h-4.8V7.7z M136.7,12.4c-0.5,0.7-1.1,1.3-1.7,1.9l-0.7-2.2
		c1.9-2.1,3.3-4.6,4.2-7.5l1.9,0.9c-0.5,1.5-1.1,2.8-1.9,4.1v12.8h-1.9V12.4z M141.3,8.1l1.8,0.2c-0.2,2.3-0.7,4.3-1.4,6l-1.8-0.6
		C140.6,12.1,141.1,10.2,141.3,8.1z M146.8,4.9c0,1.7,0,3.3-0.1,4.9c0,0.7-0.1,1.3-0.1,2c1,4.1,2.8,7.2,5.6,9.3l-1.4,1.5
		c-2.4-2.1-4.1-4.5-5-7.4c-1,2.9-2.7,5.4-5.2,7.4l-1.4-1.5c3.6-2.8,5.5-6.5,5.5-11.1c0-1.8,0-3.5,0-5.1H146.8z M149.8,7.8l1.8,0.5
		c-0.5,2.2-1,4.2-1.7,5.9l-1.8-0.7C148.7,12,149.3,10.1,149.8,7.8z M161.5,5.9c0.6,1.1,1.1,2.3,1.5,3.8l-1.9,0.5
		c-0.4-1.2-0.9-2.5-1.5-3.6L161.5,5.9z M168.5,5.5l1.9,0.5c-0.4,1.6-1,3-1.7,4.2l-1.8-0.7C167.5,8.5,168.1,7.1,168.5,5.5z
		 M159.3,10.8h4.6v-6h2v6h4.8v1.9H166v2.5h5.3v2H166v5.3h-2v-5.3h-5.2v-2h5.2v-2.5h-4.6V10.8z M157.5,4.5l1.9,0.9
		c-0.5,1.5-1.1,2.9-1.8,4.2v12.9h-2v-9.9c-0.5,0.6-1,1.2-1.5,1.8l-0.7-2.2C155.2,10.1,156.6,7.5,157.5,4.5z"/>
</g>
</svg>
