<?xml version="1.0" encoding="UTF-8"?>
<svg width="57px" height="56px" viewBox="0 0 57 56" version="1.1" xmlns="http://www.w3.org/2000/svg" xmlns:xlink="http://www.w3.org/1999/xlink">
    <title>Icons / VIP / AM@1x</title>
    <defs>
        <linearGradient x1="50%" y1="0%" x2="50%" y2="100%" id="linearGradient-1">
            <stop stop-color="#E5DB8A" offset="0%"></stop>
            <stop stop-color="#A37527" offset="48.6961571%"></stop>
            <stop stop-color="#E6DD8D" offset="49.0102407%"></stop>
            <stop stop-color="#A57729" offset="100%"></stop>
        </linearGradient>
        <linearGradient x1="23.2096354%" y1="5.75284091%" x2="65.719697%" y2="100%" id="linearGradient-2">
            <stop stop-color="#FFFFFF" stop-opacity="0.6" offset="0%"></stop>
            <stop stop-color="#FFFFFF" stop-opacity="0" offset="100%"></stop>
        </linearGradient>
        <linearGradient x1="32.7083333%" y1="7.01822917%" x2="66.6069444%" y2="93.4592014%" id="linearGradient-3">
            <stop stop-color="#FFFFFF" offset="0%"></stop>
            <stop stop-color="#FFFFFF" stop-opacity="0.447633605" offset="100%"></stop>
        </linearGradient>
        <path d="M17.5000002,1.45360381 C17.2112366,1.45360381 16.9139718,1.46999017 16.6164235,1.50234092 C13.650434,1.82598913 11.1268705,3.74523282 10.0306885,6.5110817 C9.69226282,7.36591523 9.50778289,8.26449261 9.48121609,9.18515289 C9.87157107,8.98071019 10.3042913,8.8739527 10.7513221,8.8739527 L11.0169194,8.8739527 C11.4349747,7.90687611 12.4025025,7.26576855 13.4691421,7.26274445 C13.6908156,7.24649875 13.9238242,7.23862204 14.1809201,7.23862204 C14.4605446,7.23862204 14.7300383,7.24783498 14.9906764,7.25669627 C15.2359412,7.26506527 15.4676038,7.2730123 15.6938113,7.2730123 C16.5878022,7.2730123 17.3157328,7.13938962 17.9626169,6.48738125 C18.6525746,5.79205101 19.5660478,5.40918686 20.5349216,5.40918686 C22.2473827,5.40918686 23.7217344,6.5750096 24.1030921,8.20443273 L24.8097692,8.20443273 C25.02535,8.20443273 25.2366093,8.23284513 25.4410675,8.28903699 C25.2791162,7.16280875 24.8720418,6.07293995 24.2547709,5.118874 C24.2243784,5.07189508 24.0933155,4.90212394 23.9416367,4.70548761 C23.8058272,4.52952764 23.6403337,4.3150984 23.4681099,4.0870959 C23.4668347,4.08533771 23.4019409,3.99967854 23.4019409,3.99967854 C23.4019409,3.99967854 23.2799461,3.88820909 23.2773248,3.88574762 C23.2614556,3.87062716 23.2455863,3.85620997 23.2297171,3.84172246 C23.206905,3.82125709 23.1839513,3.80008845 23.1619186,3.7789198 L22.7813402,3.42601526 C22.7461303,3.39324254 22.7220431,3.37108931 22.706103,3.35786769 C22.6598413,3.31820285 22.614784,3.28092916 22.5690891,3.24442907 C22.5219773,3.2059598 22.4763532,3.16945971 22.4300207,3.13429585 C22.3865928,3.10039788 22.345432,3.06889106 22.3036335,3.03879079 C22.2423528,2.99300744 22.1832682,2.9500372 22.123546,2.90847351 C22.0809682,2.87816226 22.0401616,2.85052346 21.9986466,2.82281434 C21.9388535,2.78209459 21.8791313,2.74320335 21.8192675,2.70614064 C21.7846243,2.68328413 21.755082,2.66506925 21.7248313,2.64678404 C21.6111962,2.57722991 21.5109508,2.51878757 21.4175773,2.46744833 C21.3912939,2.45225754 21.3689069,2.43987986 21.3458823,2.42813513 C21.3098223,2.40858402 21.2790048,2.39226799 21.2481165,2.37602228 L21.2391192,2.37124 C21.1952662,2.34852414 21.1508465,2.32538632 21.1064268,2.30365505 C21.0449335,2.27285151 20.9852113,2.24352485 20.9248515,2.21560474 C20.8946716,2.20132821 20.8660503,2.18838791 20.8372873,2.17544761 L20.791805,2.15477125 C20.6733524,2.10139251 20.5491614,2.0496313 20.4236244,2.00138648 C20.3919568,1.98914945 20.36036,1.97705308 20.3286215,1.96573032 C20.3251501,1.96446442 20.3217495,1.96312819 20.318349,1.96172164 C20.2988667,1.9534933 20.2787467,1.94653085 20.258556,1.93956841 C20.1602942,1.90370126 20.0729425,1.87381198 19.9891331,1.84708744 C19.9420921,1.83133403 19.8986642,1.81790144 19.854032,1.80439851 C19.8047949,1.78962969 19.761792,1.77668939 19.7192143,1.76501499 C19.6704022,1.75038682 19.6264076,1.73850143 19.5823421,1.727249 C19.4931485,1.70326724 19.4028922,1.6808327 19.3042053,1.65797618 C19.2585104,1.64714571 19.2137365,1.6372295 19.1691751,1.62857919 C19.1188044,1.61753774 19.0734637,1.60825448 19.0288315,1.60023712 C18.980657,1.59039124 18.9370874,1.58202224 18.8935887,1.57498946 C18.8903299,1.5745675 18.887071,1.5740752 18.8838121,1.57351258 C18.8065204,1.55951736 18.7246238,1.54664739 18.6333757,1.5339884 L18.6182857,1.53159726 C18.6138933,1.53124562 18.5488578,1.52252498 18.5488578,1.52252498 C18.5488578,1.52252498 18.5101057,1.51781302 18.5063509,1.5172504 C18.4345142,1.50775616 18.36204,1.49959814 18.2895657,1.49284668 C18.2216255,1.48581391 18.155669,1.48039867 18.0897125,1.47561639 C18.0607369,1.4733659 18.036508,1.47146705 18.0122082,1.47020115 C17.9653798,1.46738804 17.9203225,1.46464526 17.8759736,1.46253543 L17.7966274,1.45894871 C17.7575211,1.45768281 17.7188398,1.45634659 17.6794501,1.45571364 C17.6187361,1.45430708 17.5593681,1.45360381 17.5000002,1.45360381 L17.5000002,1.45360381 Z M10.7513221,10.3282598 C10.0548466,10.3282598 9.48327059,10.8910926 9.47710709,11.5829768 L9.47710709,11.605763 C9.47958665,11.9379911 9.61199563,12.2521451 9.8499634,12.4890089 C10.0905524,12.7278419 10.4107002,12.859425 10.7513221,12.859425 L10.8013386,12.859425 L10.8013386,10.3282598 L10.7513221,10.3282598 Z M24.8097692,13.528945 C25.3158138,13.528945 25.7275639,13.1202002 25.7275639,12.6178493 L25.7275639,10.5698355 C25.7275639,10.0674846 25.3158138,9.65873981 24.8097692,9.65873981 L24.1987326,9.65873981 L24.1987326,13.1073303 C24.1963239,13.2458759 24.1895228,13.386672 24.1781876,13.528945 L24.8097692,13.528945 Z M23.6571239,16.3322082 C23.9773425,16.3322082 24.2376973,16.0736132 24.2376973,15.7558725 L24.2376973,14.9825488 L23.8996966,14.9825488 C23.7532603,15.4514238 23.5531237,15.9035607 23.3026873,16.3322082 L23.6571239,16.3322082 Z M19.3873063,16.6472061 C19.1585484,16.6472061 18.9725098,16.8319571 18.9725098,17.0590453 C18.9725098,17.2864852 19.1585484,17.4715174 19.3873063,17.4715174 L21.047909,17.4715174 C21.2479748,17.4715174 21.4228198,17.3238995 21.4561877,17.1275445 C21.4629888,17.0698758 21.4646183,17.0441358 21.4567545,16.9943438 C21.425016,16.7965822 21.24925,16.6472061 21.047909,16.6472061 L19.3873063,16.6472061 Z M12.2915595,13.5218419 C12.4099412,14.7262042 12.9543836,15.858551 13.8245706,16.7102901 C14.810093,17.6756085 16.1154089,18.2071455 17.5000002,18.2071455 C17.6300713,18.2071455 17.7619135,18.2020115 17.8946767,18.191814 C17.6457988,17.8693614 17.5082182,17.4733459 17.5082182,17.0590453 C17.5082182,16.030432 18.3512007,15.1936023 19.3873063,15.1936023 L21.047909,15.1936023 C21.4204819,15.1936023 21.7828532,15.3039465 22.0901781,15.5079673 C22.3336009,15.0702475 22.5100753,14.603201 22.615705,14.1167442 L22.6190347,14.1020457 C22.6905171,13.7657385 22.7291275,13.4268995 22.7344409,13.0922098 C22.7336616,10.6758194 22.7340867,9.68511271 22.7342992,9.2762273 C22.7344409,9.06524412 22.7344409,9.0119357 22.7341575,8.99576032 C22.7338741,8.99161099 22.7322447,8.95089123 22.7322447,8.94807812 C22.6888168,7.64427238 21.5805912,6.86293132 20.5342132,6.86293132 C20.1287682,6.86293132 19.5343802,6.97475241 19.0054527,7.50776626 C17.9429928,8.5787169 16.7695192,8.72626447 15.659735,8.72626447 C15.394492,8.72626447 15.1281154,8.71712187 14.8704528,8.70819024 C14.6108065,8.69925862 14.3655417,8.69074897 14.1194268,8.69074897 C13.8844345,8.69074897 13.6801889,8.69883666 13.4948588,8.71557466 C13.488837,8.71613728 13.4827443,8.71634826 13.4767225,8.71634826 C12.8089392,8.71634826 12.2656302,9.25569161 12.2656302,9.9186711 L12.2656302,13.0953746 C12.2681098,13.2221755 12.2761861,13.3586816 12.2902134,13.5086906 C12.2902134,13.5086906 12.2909219,13.5153718 12.2911344,13.5178332 C12.2913469,13.5191694 12.2914178,13.5205057 12.2915595,13.5218419 L12.2915595,13.5218419 Z M8.58814622,16.1925374 C8.45672907,16.4716681 7.84427556,17.9422209 8.69852246,19.4826795 C9.25430011,20.4862561 10.2221821,21.1502905 11.3539282,21.3048006 C11.6820106,21.349529 11.9091391,21.3527641 12.0448069,21.3547332 C12.0752702,21.3551552 12.1016953,21.3555772 12.1241531,21.3562805 C12.1655974,21.3455906 12.2163931,21.3381359 12.2849,21.3282197 C12.9125852,21.236653 13.4934419,21.048034 13.4934419,20.2941208 L13.4934419,18.3404868 C13.2490981,18.1588303 13.0150268,17.9589589 12.7966831,17.7453736 C11.8334768,16.8024194 11.1906309,15.6187334 10.9306304,14.3130288 L10.7513221,14.3130288 C10.2346508,14.3130288 9.74369616,14.1743426 9.31373892,13.9092774 C9.16765689,14.7053872 8.92635941,15.4670365 8.59501817,16.1775576 C8.59282198,16.1826212 8.5904841,16.1875441 8.58814622,16.1925374 L8.58814622,16.1925374 Z M22.6749313,21.3213979 C22.710212,21.3283603 22.7393292,21.3337053 22.7656126,21.3383469 C22.7805609,21.341371 22.8038688,21.34545 22.8040105,21.34545 C22.8299397,21.3505839 22.8498471,21.3543113 22.8634493,21.3569134 C22.8830734,21.3562101 22.9076565,21.3557882 22.9370571,21.3553662 C23.0680492,21.3537487 23.3118262,21.3505136 23.6460013,21.3048709 C24.7781724,21.1502905 25.7460544,20.4864671 26.301407,19.4835234 C26.8654735,18.4656702 26.9115935,17.2784678 26.4279359,16.2260837 L26.4248187,16.2189806 C26.4139086,16.192678 26.3976851,16.1567406 26.3771401,16.1113088 C26.270377,15.874867 26.0606763,15.410493 25.8737168,14.7325337 C25.817466,14.7605242 25.7602942,14.7861938 25.7020598,14.8095426 L25.7020598,15.7565055 C25.7020598,16.8754899 24.7846901,17.785812 23.6571239,17.785812 L22.7785064,17.785812 C22.5484024,18.3276169 22.0789846,18.7267267 21.5066292,18.8689997 L21.5066292,20.2941208 C21.5066292,20.760042 21.8412294,21.1621056 22.3022875,21.2502966 C22.3030668,21.2504372 22.35365,21.2606347 22.3552086,21.2609161 C22.3676064,21.2627446 22.3807127,21.2651357 22.3950234,21.2682301 L22.6749313,21.3213979 Z M13.8488704,22.3256075 C14.7103435,23.4580949 16.0595123,24.1280369 17.5000002,24.1280369 C18.9407714,24.1280369 20.2896568,23.4581653 21.1504215,22.3256779 C20.4616681,21.8798704 20.0422667,21.1205419 20.0422667,20.2941208 L20.0422667,19.1626883 C19.2385322,19.4891496 18.3660073,19.6608196 17.5000002,19.6608196 C16.6164235,19.6608196 15.7627434,19.4945648 14.9577336,19.1664157 L14.9577336,20.2941208 C14.9577336,21.1201199 14.5381197,21.8793781 13.8488704,22.3256075 L13.8488704,22.3256075 Z M10.9819929,33.5463262 L10.9819929,26.6566 C10.9819929,25.406595 11.2041622,24.1275446 11.6267516,22.9350676 L11.1583256,23.0245245 C8.96029409,23.44417 7.40751721,24.2653166 6.41129728,25.5348024 C5.437606,26.7755242 4.96429172,28.4868791 4.96429172,30.7666227 L4.96429172,32.6070994 C4.96429172,33.1249928 5.38879391,33.5463262 5.91049521,33.5463262 L6.90416473,33.5463262 L6.90416473,31.1076419 C6.90416473,30.7069145 7.23253049,30.3808048 7.63627515,30.3808048 C8.04001981,30.3808048 8.36838557,30.7069145 8.36838557,31.1076419 L8.36838557,33.5463262 L10.9819929,33.5463262 Z M22.5537158,33.5463262 L22.5537158,26.5350034 C22.5537158,25.5242532 22.3859552,24.4867786 22.0665159,23.5125989 C20.9208842,24.8320174 19.2764341,25.581711 17.5000002,25.581711 C15.7413482,25.581711 14.1073832,24.8445358 12.9630267,23.5468485 C12.6199961,24.5542932 12.4462846,25.5987303 12.4462846,26.6566 L12.4462846,33.5463262 L22.5537158,33.5463262 Z M29.0895051,33.5463262 C29.2174509,33.5463262 29.3412876,33.5215708 29.457544,33.4727634 C29.4851735,33.4613 29.5115277,33.4485003 29.536961,33.4342941 C29.5612608,33.4212132 29.5818058,33.4093981 29.6017132,33.3963171 C29.6092936,33.3915348 29.6139693,33.3887217 29.6183617,33.3854867 C29.6210538,33.3834472 29.6251628,33.3804231 29.6279966,33.3784539 C29.6367105,33.3725464 29.6455661,33.3665685 29.6542801,33.3600984 C29.6682365,33.3494789 29.6832556,33.3381561 29.6969995,33.3262004 C29.699054,33.3244422 29.7108142,33.3146666 29.714569,33.3112909 C29.7281004,33.2989836 29.7431903,33.2852697 29.7582094,33.2703602 C29.9370926,33.092853 30.0356377,32.8571848 30.0356377,32.6070994 L30.0356377,30.7666227 C30.0356377,28.4868791 29.5623943,26.7755242 28.588703,25.5348024 C27.5924831,24.2653166 26.0397062,23.44417 23.8416747,23.0244542 L23.4199354,22.9439992 C23.8119199,24.0961784 24.0180783,25.3302894 24.0180783,26.5350034 L24.0180783,33.5463262 L26.6316147,33.5463262 L26.6316147,31.1076419 C26.6316147,30.7069145 26.9600514,30.3808048 27.3637252,30.3808048 C27.7674698,30.3808048 28.0959064,30.7069145 28.0959064,31.1076419 L28.0959064,33.5463262 L29.0895051,33.5463262 Z M5.91049521,35 C4.58137544,35 3.50000003,33.9265179 3.50000003,32.6070994 L3.50000003,30.7666227 C3.50000003,28.3135213 3.94412624,26.5129908 4.89776843,25.1003177 C5.8085495,23.7510802 7.21992011,22.7525672 9.20392944,22.0562523 C8.45998793,21.6034824 7.84718019,20.9630781 7.41566436,20.1833546 C6.62574456,18.7585852 6.56184253,17.096108 7.24039427,15.6223202 C7.24039427,15.6223202 7.24825804,15.6047382 7.25392563,15.5929232 C7.48169174,15.1097013 8.01154019,13.8048407 8.01217779,12.128298 C8.01281539,11.3651718 8.01359469,9.76739615 8.01359469,9.4172344 C8.01359469,8.37448518 8.18475578,7.3503728 8.52247307,6.37345034 C9.31104682,4.08751787 10.9356603,2.20674344 13.0969943,1.07784276 C14.447155,0.37266663 15.9696811,0 17.5,0 C19.0179214,0 20.531096,0.367462378 21.8782812,1.06279262 C21.891175,1.06659032 21.9037853,1.07158359 21.9157581,1.07784276 C24.0773046,2.20723574 25.7018473,4.08793984 26.4902793,6.37352066 C26.4974346,6.39412669 26.5009769,6.41536566 26.5011894,6.43660463 C26.82325,7.39566386 26.9864765,8.39804496 26.9864765,9.4172344 L26.9864765,9.61070598 C27.1227819,9.91367783 27.1919265,10.2361305 27.1919265,10.5698355 L27.1919265,12.6178493 C27.1919265,12.8646293 27.1532452,13.1079632 27.0768745,13.3419436 C27.1905804,14.1284186 27.4118996,14.8774792 27.7350937,15.569293 C27.7366523,15.5725984 27.7454371,15.5920089 27.7454371,15.5920089 C28.0037373,16.134939 28.7554009,18.0707097 27.5850444,20.1834249 C27.152891,20.9632188 26.5397998,21.6035527 25.7960709,22.0562523 C27.7800094,22.7525672 29.1913091,23.7511506 30.1022319,25.100599 C31.0558741,26.5133424 31.5,28.3138026 31.5,30.7666227 L31.5,32.6070994 C31.5,33.9265179 30.4186957,35 29.0895051,35 L5.91049521,35 Z" id="path-4"></path>
        <filter x="-17.9%" y="-11.4%" width="135.7%" height="128.6%" filterUnits="objectBoundingBox" id="filter-5">
            <feOffset dx="0" dy="1" in="SourceAlpha" result="shadowOffsetOuter1"></feOffset>
            <feGaussianBlur stdDeviation="1.5" in="shadowOffsetOuter1" result="shadowBlurOuter1"></feGaussianBlur>
            <feColorMatrix values="0 0 0 0 0   0 0 0 0 0   0 0 0 0 0  0 0 0 0.4 0" type="matrix" in="shadowBlurOuter1"></feColorMatrix>
        </filter>
    </defs>
    <g id="VIP" stroke="none" stroke-width="1" fill="none" fill-rule="evenodd">
        <g id="M-PrivateVIP-S1-Copy-2" transform="translate(-111.000000, -178.000000)">
            <g id="KV" transform="translate(-440.000000, 94.000000)">
                <g id="3" transform="translate(440.000000, 84.000000)">
                    <g id="Icons-/-VIP-/-default-Copy" transform="translate(93.750000, 0.000000)">
                        <g id="Icons-/-VIP-/-AM" transform="translate(18.195652, 0.000000)">
                            <path d="M28,0.875000008 C35.4903619,0.875000008 42.2716119,3.91106905 47.1802714,8.81972857 C52.088931,13.7283881 55.125,20.5096381 55.125,28 C55.125,35.4903619 52.088931,42.2716119 47.1802714,47.1802714 C42.2716119,52.088931 35.4903619,55.125 28,55.125 C20.5096381,55.125 13.7283881,52.088931 8.81972857,47.1802714 C3.91106905,42.2716119 0.875000008,35.4903619 0.875000008,28 C0.875000008,20.5096381 3.91106905,13.7283881 8.81972857,8.81972857 C13.7283881,3.91106905 20.5096381,0.875000008 28,0.875000008 Z" id="Rectangle" stroke="url(#linearGradient-1)" stroke-width="1.75000002" fill="#AB1410"></path>
                            <path d="M28,3.50000003 C41.5309764,3.50000003 52.5,14.4690237 52.5,28 C52.5,41.5309764 41.5309764,52.5 28,52.5 C14.4690237,52.5 3.50000003,41.5309764 3.50000003,28 C3.50000003,14.4690237 14.4690237,3.50000003 28,3.50000003 Z" id="Rectangle" fill="url(#linearGradient-2)" style="mix-blend-mode: soft-light;"></path>
                            <g id="Fill-1" transform="translate(10.500000, 10.500000)">
                                <use fill="black" fill-opacity="1" filter="url(#filter-5)" xlink:href="#path-4"></use>
                                <use fill="url(#linearGradient-3)" fill-rule="evenodd" xlink:href="#path-4"></use>
                                <use fill="#FFEBC0" fill-rule="evenodd" xlink:href="#path-4"></use>
                            </g>
                        </g>
                    </g>
                </g>
            </g>
        </g>
    </g>
</svg>