<?xml version="1.0" encoding="UTF-8"?>
<svg width="57px" height="56px" viewBox="0 0 57 56" version="1.1" xmlns="http://www.w3.org/2000/svg" xmlns:xlink="http://www.w3.org/1999/xlink">
    <title>Icons / VIP / Email@1x</title>
    <defs>
        <linearGradient x1="50%" y1="0%" x2="50%" y2="100%" id="linearGradient-1">
            <stop stop-color="#E5DB8A" offset="0%"></stop>
            <stop stop-color="#A37527" offset="48.6961571%"></stop>
            <stop stop-color="#E6DD8D" offset="49.0102407%"></stop>
            <stop stop-color="#A57729" offset="100%"></stop>
        </linearGradient>
        <linearGradient x1="23.2096354%" y1="5.75284091%" x2="65.719697%" y2="100%" id="linearGradient-2">
            <stop stop-color="#FFFFFF" stop-opacity="0.6" offset="0%"></stop>
            <stop stop-color="#FFFFFF" stop-opacity="0" offset="100%"></stop>
        </linearGradient>
        <linearGradient x1="22.9817708%" y1="11.9971805%" x2="75.9483507%" y2="88.4249452%" id="linearGradient-3">
            <stop stop-color="#FFFFFF" offset="0%"></stop>
            <stop stop-color="#FFFFFF" stop-opacity="0.447633605" offset="100%"></stop>
        </linearGradient>
        <path d="M17.1675245,0.14499268 C17.446561,-0.0490051928 17.8157773,-0.0481937474 18.0938214,0.146615571 L18.0938214,0.146615571 L22.5434576,3.25994437 L27.773143,3.25994437 C28.2221815,3.25994437 28.586374,3.62646802 28.586374,4.0783807 L28.586374,4.0783807 L28.586374,7.48745015 L33.1320821,10.6675047 C33.2943933,10.7811695 33.4028696,10.9438955 33.4516808,11.122039 C33.4702254,11.1637972 33.4809552,11.2364528 33.4810172,11.2845153 L33.4810172,11.2845153 L33.5052065,28.9981191 C33.5058259,29.4500942 33.1421916,29.8170548 32.6931532,29.8177414 L32.6931532,29.8177414 L2.58865996,29.8593748 C2.37220358,29.8593748 2.1656707,29.7734864 2.0132209,29.6204977 C1.86058504,29.4671969 1.7746227,29.2591548 1.77425057,29.042062 L1.77425057,29.042062 L1.75000002,11.3004946 C1.75000002,11.2955011 1.75105439,11.2909445 1.7513645,11.2860758 C1.75514783,11.0306578 1.87671073,10.780795 2.10141602,10.6244981 L2.10141602,10.6244981 L6.66926592,7.44725239 L6.66926592,4.0783807 C6.66926592,3.62646802 7.03327236,3.25994437 7.48243486,3.25994437 L7.48243486,3.25994437 L12.6891722,3.25994437 Z M17.6400072,18.3268004 L4.96738536,28.2192563 L30.267043,28.1841769 L17.6400072,18.3268004 Z M3.3785707,12.8615907 L3.39847973,27.3726067 L13.2195214,19.7061328 L3.3785707,12.8615907 Z M31.856664,12.822142 L22.0400879,19.6904657 L31.876573,27.3693609 L31.856664,12.822142 Z M26.959788,4.89681703 L8.29572786,4.89681703 L8.29572786,14.2909206 L14.5679392,18.6535632 L17.1414753,16.6445492 C17.4378159,16.4132249 17.8417024,16.4211521 18.1271892,16.6366845 C18.1310965,16.6395557 18.1344457,16.6414283 18.1384771,16.6445492 L18.1384771,16.6445492 L20.6933447,18.6390821 L26.959788,14.2547177 L26.959788,4.89681703 Z M23.1332795,12.4264063 C23.582442,12.4264063 23.9465105,12.7929299 23.9465105,13.2447802 C23.9465105,13.6967553 23.582442,14.063279 23.1332795,14.063279 L23.1332795,14.063279 L12.1222239,14.063279 C11.6731855,14.063279 11.308993,13.6967553 11.308993,13.2447802 C11.308993,12.7929299 11.6731855,12.4264063 12.1222239,12.4264063 L12.1222239,12.4264063 Z M6.66926592,9.43697897 L3.99320759,11.2984347 L6.66926592,13.1597033 L6.66926592,9.43697897 Z M28.586312,9.4810467 L28.586312,13.1166967 L31.1848429,11.2985596 L28.586312,9.4810467 Z M23.1332795,8.1705249 C23.582442,8.1705249 23.9465105,8.53704855 23.9465105,8.98896123 C23.9465105,9.44093632 23.582442,9.80745998 23.1332795,9.80745998 L23.1332795,9.80745998 L12.1222239,9.80745998 C11.6731855,9.80745998 11.308993,9.44093632 11.308993,8.98896123 C11.308993,8.53704855 11.6731855,8.1705249 12.1222239,8.1705249 L12.1222239,8.1705249 Z M17.6285332,1.81451041 L15.550676,3.25988195 L19.6945442,3.25988195 L17.6285332,1.81451041 Z" id="path-4"></path>
        <filter x="-15.7%" y="-13.4%" width="131.5%" height="133.5%" filterUnits="objectBoundingBox" id="filter-5">
            <feOffset dx="0" dy="1" in="SourceAlpha" result="shadowOffsetOuter1"></feOffset>
            <feGaussianBlur stdDeviation="1.5" in="shadowOffsetOuter1" result="shadowBlurOuter1"></feGaussianBlur>
            <feColorMatrix values="0 0 0 0 0   0 0 0 0 0   0 0 0 0 0  0 0 0 0.4 0" type="matrix" in="shadowBlurOuter1"></feColorMatrix>
        </filter>
    </defs>
    <g id="VIP" stroke="none" stroke-width="1" fill="none" fill-rule="evenodd">
        <g id="M-PrivateVIP-S1-Copy-2" transform="translate(-299.000000, -178.000000)">
            <g id="KV" transform="translate(-440.000000, 94.000000)">
                <g id="3" transform="translate(440.000000, 84.000000)">
                    <g id="Icons-/-VIP-/-default-Copy-3" transform="translate(281.250000, 0.000000)">
                        <g id="Icons-/-VIP-/-Email" transform="translate(18.195652, 0.000000)">
                            <path d="M28,0.875000008 C35.4903619,0.875000008 42.2716119,3.91106905 47.1802714,8.81972857 C52.088931,13.7283881 55.125,20.5096381 55.125,28 C55.125,35.4903619 52.088931,42.2716119 47.1802714,47.1802714 C42.2716119,52.088931 35.4903619,55.125 28,55.125 C20.5096381,55.125 13.7283881,52.088931 8.81972857,47.1802714 C3.91106905,42.2716119 0.875000008,35.4903619 0.875000008,28 C0.875000008,20.5096381 3.91106905,13.7283881 8.81972857,8.81972857 C13.7283881,3.91106905 20.5096381,0.875000008 28,0.875000008 Z" id="Rectangle" stroke="url(#linearGradient-1)" stroke-width="1.75000002" fill="#AB1410"></path>
                            <path d="M28,3.50000003 C41.5309764,3.50000003 52.5,14.4690237 52.5,28 C52.5,41.5309764 41.5309764,52.5 28,52.5 C14.4690237,52.5 3.50000003,41.5309764 3.50000003,28 C3.50000003,14.4690237 14.4690237,3.50000003 28,3.50000003 Z" id="Rectangle" fill="url(#linearGradient-2)" style="mix-blend-mode: soft-light;"></path>
                            <g id="icons-/-email" transform="translate(10.500000, 10.500000)">
                                <use fill="black" fill-opacity="1" filter="url(#filter-5)" xlink:href="#path-4"></use>
                                <use fill="url(#linearGradient-3)" fill-rule="evenodd" xlink:href="#path-4"></use>
                                <use fill="#FFEBC0" fill-rule="evenodd" xlink:href="#path-4"></use>
                            </g>
                        </g>
                    </g>
                </g>
            </g>
        </g>
    </g>
</svg>