<?xml version="1.0" encoding="UTF-8"?>
<svg width="57px" height="56px" viewBox="0 0 57 56" version="1.1" xmlns="http://www.w3.org/2000/svg" xmlns:xlink="http://www.w3.org/1999/xlink">
    <title>Icons / VIP / Flygram@1x</title>
    <defs>
        <linearGradient x1="50%" y1="0%" x2="50%" y2="100%" id="linearGradient-1">
            <stop stop-color="#E5DB8A" offset="0%"></stop>
            <stop stop-color="#A37527" offset="48.6961571%"></stop>
            <stop stop-color="#E6DD8D" offset="49.0102407%"></stop>
            <stop stop-color="#A57729" offset="100%"></stop>
        </linearGradient>
        <linearGradient x1="23.2096354%" y1="5.75284091%" x2="65.719697%" y2="100%" id="linearGradient-2">
            <stop stop-color="#FFFFFF" stop-opacity="0.6" offset="0%"></stop>
            <stop stop-color="#FFFFFF" stop-opacity="0" offset="100%"></stop>
        </linearGradient>
        <path d="M4.61181593,13.9999531 C4.80936339,18.7319202 8.70622215,22.5017842 13.4826374,22.5017842 C14.6114801,22.5017842 15.6909358,22.2877744 16.6857284,21.9020865 L16.6857284,21.9020865 L16.6833766,21.90679 L23.978522,23.818532 C21.4386261,26.4009947 17.9060543,28.0001884 14.0000235,28.0001884 C6.26980352,28.0001884 2.35175539e-05,21.732525 2.35175539e-05,13.9999531 L2.35175539e-05,13.9999531 Z M14.0000472,0 C21.732619,0 28.0000472,6.26742824 28.0000472,14 C28.0000472,17.8239545 26.4667027,21.290442 23.9806621,23.8164625 L23.9806621,23.8164625 L21.5512987,17.3230306 C22.0689201,16.1965397 22.3628895,14.9430541 22.3628895,13.6216027 C22.3628895,8.89222249 18.6635782,5.02570137 14.0000472,4.75995301 L14.0000472,4.75995301 Z M13.7532069,9.04931975 C16.894917,9.04931975 19.4418681,11.1092223 19.4418681,13.6467665 C19.4418681,14.9030742 18.8181826,16.0408535 17.8083388,16.8705528 L17.8083388,16.8705528 L17.8083388,18.4229466 L16.5781355,17.6369899 C15.7456141,18.022913 14.7816296,18.2444483 13.7532069,18.2444483 C10.6110265,18.2444483 8.06407533,16.1866623 8.06407533,13.6467665 C8.06407533,11.1092223 10.6110265,9.04931975 13.7532069,9.04931975 Z M16.5633195,12.9835714 C16.1188377,12.9835714 15.7590191,13.34339 15.7590191,13.7878718 C15.7590191,14.2325887 16.1188377,14.5921721 16.5633195,14.5921721 C17.0080364,14.5921721 17.3676198,14.2325887 17.3676198,13.7878718 C17.3676198,13.34339 17.0080364,12.9835714 16.5633195,12.9835714 Z M13.741213,12.9835714 C13.2967312,12.9835714 12.9369126,13.34339 12.9369126,13.7878718 C12.9369126,14.2325887 13.2967312,14.5921721 13.741213,14.5921721 C14.1859299,14.5921721 14.5455133,14.2325887 14.5455133,13.7878718 C14.5455133,13.34339 14.1859299,12.9835714 13.741213,12.9835714 Z M10.9191064,12.9835714 C10.4746247,12.9835714 10.1148061,13.34339 10.1148061,13.7878718 C10.1148061,14.2325887 10.4746247,14.5921721 10.9191064,14.5921721 C11.3638234,14.5921721 11.7234068,14.2325887 11.7234068,13.7878718 C11.7234068,13.34339 11.3638234,12.9835714 10.9191064,12.9835714 Z M3.90109192,8.42831521 L3.90109192,10.7266858 L1.60272133,10.7266858 L1.60272133,8.42831521 L3.90109192,8.42831521 Z M12.3295482,9.40702175e-05 L12.3295482,4.21420464 L8.11543767,4.21420464 L8.11543767,8.42808003 L3.9013271,8.42808003 L3.90109192,4.21420464 L1.39506133,4.21420464 L1.39506133,1.70817405 L3.90109192,1.70817405 L3.9013271,4.21396946 L8.11543767,4.21396946 L8.11543767,9.40702175e-05 L12.3295482,9.40702175e-05 Z M1.60272133,6.8253587 L1.60272133,8.42808003 L0,8.42808003 L0,6.8253587 L1.60272133,6.8253587 Z M5.60211663,0.00714933653 L5.60211663,1.70793887 L3.9013271,1.70793887 L3.9013271,0.00714933653 L5.60211663,0.00714933653 Z M1.3952965,0.312642368 L1.3952965,1.70793887 L0,1.70793887 L0,0.312642368 L1.3952965,0.312642368 Z" id="path-3"></path>
        <filter x="-17.9%" y="-14.3%" width="135.7%" height="135.7%" filterUnits="objectBoundingBox" id="filter-4">
            <feOffset dx="0" dy="1" in="SourceAlpha" result="shadowOffsetOuter1"></feOffset>
            <feGaussianBlur stdDeviation="1.5" in="shadowOffsetOuter1" result="shadowBlurOuter1"></feGaussianBlur>
            <feColorMatrix values="0 0 0 0 0   0 0 0 0 0   0 0 0 0 0  0 0 0 0.4 0" type="matrix" in="shadowBlurOuter1"></feColorMatrix>
        </filter>
    </defs>
    <g id="VIP" stroke="none" stroke-width="1" fill="none" fill-rule="evenodd">
        <g id="M-PrivateVIP-S1-Copy-2" transform="translate(-205.000000, -178.000000)">
            <g id="KV" transform="translate(-440.000000, 94.000000)">
                <g id="3" transform="translate(440.000000, 84.000000)">
                    <g id="Icons-/-VIP-/-default-Copy-2" transform="translate(187.500000, 0.000000)">
                        <g id="Icons-/-VIP-/-Flygram" transform="translate(18.195652, 0.000000)">
                            <path d="M28,0.875000008 C35.4903619,0.875000008 42.2716119,3.91106905 47.1802714,8.81972857 C52.088931,13.7283881 55.125,20.5096381 55.125,28 C55.125,35.4903619 52.088931,42.2716119 47.1802714,47.1802714 C42.2716119,52.088931 35.4903619,55.125 28,55.125 C20.5096381,55.125 13.7283881,52.088931 8.81972857,47.1802714 C3.91106905,42.2716119 0.875000008,35.4903619 0.875000008,28 C0.875000008,20.5096381 3.91106905,13.7283881 8.81972857,8.81972857 C13.7283881,3.91106905 20.5096381,0.875000008 28,0.875000008 Z" id="Rectangle" stroke="url(#linearGradient-1)" stroke-width="1.75000002" fill="#AB1410"></path>
                            <path d="M28,3.50000003 C41.5309764,3.50000003 52.5,14.4690237 52.5,28 C52.5,41.5309764 41.5309764,52.5 28,52.5 C14.4690237,52.5 3.50000003,41.5309764 3.50000003,28 C3.50000003,14.4690237 14.4690237,3.50000003 28,3.50000003 Z" id="Rectangle" fill="url(#linearGradient-2)" style="mix-blend-mode: soft-light;"></path>
                            <g id="Group" transform="translate(10.500000, 10.500000)">
                                <g id="Group-17" transform="translate(3.500000, 3.499906)">
                                    <g id="Combined-Shape">
                                        <use fill="black" fill-opacity="1" filter="url(#filter-4)" xlink:href="#path-3"></use>
                                        <use fill="#FFEBC0" fill-rule="evenodd" xlink:href="#path-3"></use>
                                    </g>
                                    <g id="Group-6" transform="translate(14.000047, 0.000000)"></g>
                                </g>
                            </g>
                        </g>
                    </g>
                </g>
            </g>
        </g>
    </g>
</svg>