<?xml version="1.0" encoding="UTF-8"?>
<svg width="57px" height="56px" viewBox="0 0 57 56" version="1.1" xmlns="http://www.w3.org/2000/svg" xmlns:xlink="http://www.w3.org/1999/xlink">
    <title>Icons / VIP / Friends@1x</title>
    <defs>
        <linearGradient x1="50%" y1="0%" x2="50%" y2="100%" id="linearGradient-1">
            <stop stop-color="#E5DB8A" offset="0%"></stop>
            <stop stop-color="#A37527" offset="48.6961571%"></stop>
            <stop stop-color="#E6DD8D" offset="49.0102407%"></stop>
            <stop stop-color="#A57729" offset="100%"></stop>
        </linearGradient>
        <linearGradient x1="23.2096354%" y1="5.75284091%" x2="65.719697%" y2="100%" id="linearGradient-2">
            <stop stop-color="#FFFFFF" stop-opacity="0.6" offset="0%"></stop>
            <stop stop-color="#FFFFFF" stop-opacity="0" offset="100%"></stop>
        </linearGradient>
        <linearGradient x1="22.9817708%" y1="11.6613171%" x2="75.9483507%" y2="88.7645392%" id="linearGradient-3">
            <stop stop-color="#FFFFFF" offset="0%"></stop>
            <stop stop-color="#FFFFFF" stop-opacity="0.447633605" offset="100%"></stop>
        </linearGradient>
        <path d="M17.9422855,0 C18.6571879,0 19.3293656,0.281574635 19.8348832,0.792680286 L19.8348832,0.792680286 L19.8861471,0.8445219 C20.1657108,1.12723686 21.4940372,2.47054951 21.5016215,2.478465 C22.479434,2.478465 23.0615141,2.75409574 23.566143,3.26554697 C24.0634575,3.76780589 24.3517289,4.47761726 24.3558989,5.21217181 C24.3571293,5.41903309 24.3362114,5.6214019 24.2957426,5.81720478 C24.9096782,5.87850982 25.478975,6.14978631 25.9209184,6.59654587 C26.425684,7.10696037 26.7090336,7.79313439 26.7188774,8.52872566 C26.7220219,8.76841659 26.6956352,9.00244008 26.6420415,9.22685659 C27.188643,9.30986374 27.7144633,9.56323944 28.134395,9.98774396 C28.6935063,10.5530358 29.0064555,11.2933269 29.0154106,12.0721842 C29.019854,12.4536991 28.9493755,12.9552669 28.6774419,13.5120576 C29.0471294,13.6238166 29.3941216,13.8281206 29.6905278,14.1278034 C30.1960454,14.6388399 30.4744731,15.3185172 30.4744731,16.0413221 C30.4744731,16.7641271 30.1960454,17.4437352 29.6905278,17.9547718 L29.6905278,17.9547718 L29.1102934,18.5414893 L29.1102934,18.5414893 L29.1141899,18.5450141 L34.7978618,24.2693283 C35.0663775,24.5377711 35.0675396,24.9906128 34.8005279,25.2604379 L34.8005279,25.2604379 L33.3150786,26.7623766 C33.0333696,27.0471996 32.5564946,27.027018 32.2987798,26.7201473 C32.0690239,26.4466591 32.0863872,26.0274765 32.3372661,25.7737552 L32.3372661,25.7737552 L33.3311431,24.7689609 L32.06752,23.5053308 L25.5446684,30.100287 L26.8013872,31.3709668 L27.9239848,30.2358907 C28.1901762,29.9666876 28.6356059,29.9666185 28.9017973,30.2358907 C29.1679887,30.5050246 29.1679887,30.9553781 28.9017973,31.224443 L28.9017973,31.224443 L27.2902934,32.8538298 C27.0240337,33.1228255 26.5786723,33.1228255 26.3124809,32.8538298 L26.3124809,32.8538298 L20.3910551,26.8668785 C20.0081059,26.9993029 19.6012992,27.0623358 19.1910062,27.0469232 L19.1910062,27.0469232 L14.44543,26.8719239 C13.9038871,26.852779 13.374307,27.0625432 12.9914261,27.4495873 L12.9914261,27.4495873 L8.21481473,32.2568142 C7.94814481,32.5248423 7.50326199,32.5238055 7.23775418,32.2546025 L7.23775418,32.2546025 L0.201728726,25.1185447 C-0.067538855,24.8454021 -0.0671970581,24.4034806 0.202480679,24.1307527 L0.202480679,24.1307527 L6.15870143,18.1086909 L5.24193385,17.1817893 C4.73641627,16.6706145 4.45798853,15.9910755 4.45798853,15.2682705 C4.45798853,14.5453964 4.73641627,13.8658574 5.24193385,13.3546827 C5.59507838,12.9976344 6.02321315,12.7618139 6.47554714,12.646461 C5.76939479,11.5940464 5.87651393,10.1464321 6.79813503,9.21462323 C7.22640652,8.78168668 7.76501004,8.52672133 8.3232327,8.44910515 C8.08035184,7.5430071 8.30928739,6.53351296 9.01154326,5.82342514 C9.47112334,5.3588339 10.0577151,5.09896138 10.6594144,5.04366936 C10.4479105,4.15692352 10.6836819,3.18233247 11.3670023,2.49145862 C13.1121926,0.727097211 14.7792947,2.12799027 15.1780718,2.51619364 L15.235036,2.57333738 C15.2566928,2.59580269 15.26793,2.60847037 15.26793,2.60847037 C15.2917875,1.92201989 15.5670023,1.2801486 16.0500296,0.792334711 C16.5552738,0.281574635 17.2273832,0 17.9422855,0 Z M2.86336937,23.4176238 L1.66837913,24.6258928 L7.72959989,30.7731909 L8.93764677,29.5591163 L2.86336937,23.4176238 Z M30.6031802,27.7914648 C30.980729,27.7914648 31.2867739,28.1009619 31.2867739,28.4826151 C31.2867739,28.8642683 30.980729,29.1737654 30.6031802,29.1737654 C30.2256997,29.1737654 29.9195864,28.8642683 29.9195864,28.4826151 C29.9195864,28.1009619 30.2256997,27.7914648 30.6031802,27.7914648 Z M28.1327544,19.529696 L28.0969481,19.5658862 C27.5796139,20.0887665 21.629831,26.102313 21.6095609,26.1217494 L21.6095609,26.1217494 L24.5668559,29.1118038 L31.088272,22.5182299 L28.1363091,19.5337046 L28.1363091,19.5337046 L28.1327544,19.529696 Z M21.6730668,3.87044172 C21.3269633,3.87044172 21.0022563,4.00639098 20.7588285,4.25306252 L20.7588285,4.25306252 L18.826309,6.20618418 C18.826309,6.20618418 21.0533891,8.34197685 19.1033695,10.3134831 C18.5815824,10.840969 17.996973,11.099943 17.0570316,11.099943 C17.0570316,11.9799156 16.7834574,12.659109 16.2779398,13.1702147 C15.7561527,13.6977697 15.1739359,13.9588863 14.2742581,13.9588863 C14.3039945,14.688741 14.0441605,15.4285483 13.4942093,15.9846478 C12.9724222,16.512272 12.4458499,16.7710386 11.4478714,16.7710386 C11.4478714,17.7265539 11.1742972,18.3302737 10.6687796,18.8413794 C10.1469925,19.3689344 9.46155303,19.6327465 8.77611357,19.6327465 C8.20346708,19.6327465 7.63123074,19.4478638 7.15401394,19.079688 L7.15401394,19.079688 L3.84118188,22.4291406 L9.91833037,28.5734668 L12.0137503,26.4611042 C12.6673343,25.8002954 13.5717288,25.4397222 14.4958792,25.4749018 L14.4958792,25.4749018 L19.2414555,25.6499011 C19.7826566,25.6699444 20.3125785,25.4592818 20.695391,25.0722376 L20.695391,25.0722376 L28.7125786,16.9663577 C28.9570317,16.7193406 29.091563,16.390906 29.091563,16.0414604 C29.091563,15.6919457 28.9570317,15.363511 28.7125786,15.1163557 C28.1769829,14.5747012 27.44752,14.8186081 26.9966899,15.2744218 C26.7266704,15.5474953 26.2888969,15.5474953 26.0188774,15.2744218 C25.7489262,15.0014865 25.7151567,14.5198239 26.0188774,14.2858695 C26.4140629,13.9814178 26.5070317,13.9370459 26.8634575,13.6769661 C28.2706352,12.2478055 27.3547563,11.1767298 27.1564458,10.9762962 C26.6520219,10.4662964 25.8311625,10.4662964 25.3267387,10.9762962 C25.0567192,11.2493697 24.6189457,11.2493697 24.3489262,10.9762962 C24.0789067,10.703361 24.0789067,10.2606792 24.3489262,9.98774396 C24.5233793,9.8113624 24.7163579,9.66525323 24.9212309,9.54782679 C25.2559184,9.2094396 25.3410258,8.91321258 25.3361723,8.54766318 C25.3313188,8.18370343 25.1880375,7.83287554 24.9430375,7.58523638 C24.6987211,7.33815015 24.3737407,7.20206265 24.028184,7.20206265 C23.6826274,7.20206265 23.3576469,7.33815015 23.1133305,7.58523638 C22.843311,7.85824075 22.4055375,7.85824075 22.135518,7.58523638 C21.8655668,7.31223201 21.8655668,6.86961935 22.135518,6.59661498 C22.2564457,6.47435049 22.3870805,6.36570167 22.5253031,6.27046115 C22.7741996,6.01874421 22.9753129,5.58822669 22.9731254,5.22039649 C22.9710063,4.85104577 22.8306645,4.49883557 22.5881254,4.25389191 C22.3438774,4.00632187 22.0191703,3.87044172 21.6730668,3.87044172 Z M7.13466824,13.9600612 C6.7891116,13.9600612 6.46413113,14.0962178 6.21981472,14.343235 C5.97542995,14.5903212 5.84083034,14.9188249 5.84083034,15.2682705 C5.84083034,15.6175779 5.97542995,15.9462199 6.21981472,16.1931679 L6.21981472,16.1931679 L7.86119168,17.852758 C8.10557645,18.0998442 8.43048856,18.2359317 8.77604521,18.2359317 C9.12160185,18.2359317 9.44658232,18.0998442 9.69089873,17.852758 C9.9352835,17.6056718 10.0698831,17.277168 10.0698831,16.9277915 C10.0698831,16.5784151 9.9352835,16.2497731 9.69089873,16.0028251 L9.69089873,16.0028251 L8.04952176,14.3431658 C7.80520536,14.0962178 7.48022488,13.9600612 7.13466824,13.9600612 Z M8.69086943,9.82069293 C8.35953153,9.82069293 8.028262,9.94821016 7.7760159,10.2031755 C7.27152371,10.7132444 7.27152371,11.5431086 7.77608426,12.0532467 L7.77608426,12.0532467 L10.6867581,14.9960955 C10.9310745,15.2431127 11.256055,15.3792693 11.6016116,15.3792693 C11.9471683,15.3792693 12.2721488,15.2431127 12.5164652,14.9960955 C12.7608499,14.7489402 12.8954495,14.4205056 12.8954495,14.07106 C12.8954495,13.8034466 12.8158109,13.5482739 12.6689749,13.3323585 C12.6564581,13.3217768 12.5082385,13.1738177 12.2810049,12.94578 L12.0295329,12.6931717 C11.254302,11.9138439 9.99645827,10.6449903 9.54540602,10.1898924 L9.42181068,10.065181 C9.39317861,10.0362884 9.37781279,10.0207809 9.37781279,10.0207809 C9.16849638,9.88808009 8.92992216,9.82069293 8.69086943,9.82069293 Z M10.9042776,6.42949484 C10.5730081,6.42949484 10.2416019,6.55708119 9.98942413,6.81211565 C9.48493193,7.32211546 9.48493193,8.15204875 9.98942413,8.66197944 C9.98942413,8.66197944 10.0232671,8.69580302 10.0844484,8.75695854 L10.7275579,9.39994202 C10.7757298,9.44811429 10.8254937,9.49788086 10.8766089,9.5490013 L12.4094259,11.0829694 C12.4653481,11.1389846 12.5204532,11.1941898 12.5745003,11.2483446 L12.8841599,11.5587445 C12.981863,11.6567271 13.0734068,11.7485844 13.1568641,11.8323932 L13.3810489,12.0577501 C13.5444409,12.2222202 13.645246,12.3243649 13.6533499,12.3341301 C14.1570218,12.6840595 14.8527835,12.6338129 15.3001273,12.1815241 C15.5445121,11.934507 15.6791117,11.6058651 15.6791117,11.2565577 C15.6791117,10.9071121 15.5445121,10.5786084 15.3001957,10.3315221 L15.3001957,10.3315221 L11.8191312,6.81211565 C11.5669534,6.55708119 11.2356155,6.42949484 10.9042776,6.42949484 Z M13.2597367,3.09697541 C12.91418,3.09697541 12.5891995,3.23299379 12.3448831,3.48014914 C12.1004984,3.72723537 11.9659671,4.05573911 11.9659671,4.40504648 C11.9659671,4.75449207 12.1005667,5.08299581 12.3449515,5.33008205 L12.3449515,5.33008205 L16.2959867,9.32472347 C16.5403031,9.57187882 16.8652836,9.7078972 17.2108402,9.7078972 C17.5563968,9.7078972 17.8813773,9.57187882 18.1256937,9.32472347 C18.3700785,9.07777547 18.5046781,8.7491335 18.5046781,8.39982613 C18.5046781,8.05044965 18.3700785,7.7218768 18.1256937,7.47479056 L18.1256937,7.47479056 L14.1746585,3.48014914 C13.9302738,3.23299379 13.6052933,3.09697541 13.2597367,3.09697541 Z M17.9423539,1.39812795 C17.5967972,1.39812795 17.2718851,1.53421545 17.0275687,1.78123257 C16.7829105,2.02824969 16.6483793,2.35647697 16.6484476,2.70571522 C16.6484476,3.05522993 16.7830472,3.38380278 17.0275687,3.63102725 L17.0275687,3.63102725 L18.222764,4.83950356 L18.222764,4.83950356 L18.4973711,4.56442358 C18.9935801,4.0678256 19.995579,3.06735962 20.0722269,3.00919932 L20.0722269,3.00919932 L18.8573441,1.7813708 C18.6128226,1.53421545 18.2879105,1.39812795 17.9423539,1.39812795 Z" id="path-4"></path>
        <filter x="-14.3%" y="-12.1%" width="128.6%" height="130.3%" filterUnits="objectBoundingBox" id="filter-5">
            <feOffset dx="0" dy="1" in="SourceAlpha" result="shadowOffsetOuter1"></feOffset>
            <feGaussianBlur stdDeviation="1.5" in="shadowOffsetOuter1" result="shadowBlurOuter1"></feGaussianBlur>
            <feColorMatrix values="0 0 0 0 0   0 0 0 0 0   0 0 0 0 0  0 0 0 0.4 0" type="matrix" in="shadowBlurOuter1"></feColorMatrix>
        </filter>
    </defs>
    <g id="VIP" stroke="none" stroke-width="1" fill="none" fill-rule="evenodd">
        <g id="M-PrivateVIP-S1-Copy-2" transform="translate(-18.000000, -178.000000)">
            <g id="KV" transform="translate(-440.000000, 94.000000)">
                <g id="3" transform="translate(440.000000, 84.000000)">
                    <g id="Icons-/-VIP-/-Friends" transform="translate(18.195652, 0.000000)">
                        <path d="M28,0.875000008 C35.4903619,0.875000008 42.2716119,3.91106905 47.1802714,8.81972857 C52.088931,13.7283881 55.125,20.5096381 55.125,28 C55.125,35.4903619 52.088931,42.2716119 47.1802714,47.1802714 C42.2716119,52.088931 35.4903619,55.125 28,55.125 C20.5096381,55.125 13.7283881,52.088931 8.81972857,47.1802714 C3.91106905,42.2716119 0.875000008,35.4903619 0.875000008,28 C0.875000008,20.5096381 3.91106905,13.7283881 8.81972857,8.81972857 C13.7283881,3.91106905 20.5096381,0.875000008 28,0.875000008 Z" id="Rectangle" stroke="url(#linearGradient-1)" stroke-width="1.75000002" fill="#AB1410"></path>
                        <path d="M28,3.50000003 C41.5309764,3.50000003 52.5,14.4690237 52.5,28 C52.5,41.5309764 41.5309764,52.5 28,52.5 C14.4690237,52.5 3.50000003,41.5309764 3.50000003,28 C3.50000003,14.4690237 14.4690237,3.50000003 28,3.50000003 Z" id="Rectangle" fill="url(#linearGradient-2)" style="mix-blend-mode: soft-light;"></path>
                        <g id="Icons-/-VIP-/-Friends" transform="translate(10.500000, 10.500000)">
                            <use fill="black" fill-opacity="1" filter="url(#filter-5)" xlink:href="#path-4"></use>
                            <use fill="url(#linearGradient-3)" fill-rule="evenodd" xlink:href="#path-4"></use>
                            <use fill="#FFEBC0" fill-rule="evenodd" xlink:href="#path-4"></use>
                        </g>
                    </g>
                </g>
            </g>
        </g>
    </g>
</svg>