<?xml version="1.0" encoding="UTF-8"?>
<svg width="40px" height="40px" viewBox="0 0 40 40" version="1.1" xmlns="http://www.w3.org/2000/svg" xmlns:xlink="http://www.w3.org/1999/xlink">
    <title>E6E6B004-DD08-43C3-8618-8488177E1252</title>
    <defs>
        <path d="M13.75,27.5 C13.0596441,27.5 12.5,26.9403559 12.5,26.25 C12.5,25.5596441 13.0596441,25 13.75,25 C19.9632034,25 25,19.9632034 25,13.75 C25,7.62587976 20.1008765,2.62977451 13.9893464,2.50249007 C13.9096766,2.5008308 13.8298919,2.5 13.75,2.5 C7.53679656,2.5 2.5,7.53679656 2.5,13.75 C2.5,14.4403559 1.94035594,15 1.25,15 C0.559644063,15 0,14.4403559 0,13.75 C0,6.15608469 6.15608469,0 13.75,0 C13.8472458,0 13.9443835,0.00101149142 14.0414025,0.00303209918 C21.5123838,0.158629732 27.5,6.26477522 27.5,13.75 C27.5,21.3439153 21.3439153,27.5 13.75,27.5 Z" id="path-1"></path>
    </defs>
    <g id="Loading" stroke="none" stroke-width="1" fill="none" fill-rule="evenodd">
        <g id="Loading---Desktop-CSS" transform="translate(-940.000000, -504.000000)">
            <g id="Group-Copy" transform="translate(660.000000, 234.000000)">
                <g id="Icons-/-Spinner" transform="translate(280.000000, 270.000000)">
                    <g id="graphic" transform="translate(6.250000, 6.250000)">
                        <mask id="mask-2" fill="white">
                            <use xlink:href="#path-1"></use>
                        </mask>
                        <g id="Mask" fill-rule="nonzero"></g>
                        <g id="Group" mask="url(#mask-2)">
                            <g transform="translate(-18.750000, -18.750000)" id="color/white">
                                <rect id="Rectangle" fill="#0066B7" x="0" y="0" width="62.5" height="62.5"></rect>
                            </g>
                        </g>
                    </g>
                </g>
            </g>
        </g>
    </g>
</svg>