<?xml version="1.0" encoding="UTF-8"?>
<svg width="356px" height="164px" viewBox="0 0 356 164" version="1.1" xmlns="http://www.w3.org/2000/svg" xmlns:xlink="http://www.w3.org/1999/xlink">
    <title>CEF80991-0539-45BB-B750-8D90D49841F3@1x</title>
    <defs>
        <linearGradient x1="-0.308948063%" y1="49.9976095%" x2="99.796348%" y2="49.9976095%" id="linearGradient-1">
            <stop stop-color="#00D9FF" offset="0%"></stop>
            <stop stop-color="#0088FF" offset="50%"></stop>
            <stop stop-color="#54D2FD" offset="100%"></stop>
        </linearGradient>
        <linearGradient x1="66.5487674%" y1="8.03776865%" x2="33.3035903%" y2="92.0904645%" id="linearGradient-2">
            <stop stop-color="#00D9FF" offset="0%"></stop>
            <stop stop-color="#0088FF" offset="100%"></stop>
        </linearGradient>
    </defs>
    <g id="Loading" stroke="none" stroke-width="1" fill="none" fill-rule="evenodd">
        <g id="Loading---Desktop-CSS" transform="translate(-782.000000, -316.000000)" fill-rule="nonzero">
            <g id="Group-Copy" transform="translate(660.000000, 234.000000)">
                <g id="LOGO-/-Sbet-/-Light" transform="translate(122.000000, 82.000000)">
                    <g id="graphic" transform="translate(0.000000, 1.000000)">
                        <g id="Group">
                            <path d="M122.2,1.4 L55,25.8 C55,25.8 55,25.8 55,25.8 C50.4,27.4 46.4,29.8 43,32.4 L43,32.4 C37,37.2 32.6,43.8 30.6,51.6 C30.4,52.6 30.2,53.4 30,54.4 C28.6,62.4 29.8,70.4 33.4,77.2 C34.8,80 39.8,88 43.2,92.8 C44.4,94.4 43.6,96.6 41.8,97.4 L26.4,103 L12.4,108.2 C11.4,108.6 10.8,109.4 10.6,110.2 L1,157.6 C0.6,159.8 2.8,161.8 5,161 L71.8,136.6 C77.8,134.4 82.8,131.2 86.8,127.6 C86.8,127.6 86.8,127.6 86.8,127.6 C93.2,122.2 97.6,114.8 99.2,106 C100.6,98 99.2,90 95.8,83.2 C93.2,78 89.4,73.4 84.8,70 C83.4,68.8 81.8,67.8 80,67 L82.4,66.2 L103.2,58.6 L114.6,54.4 C115.6,54 116.2,53.2 116.4,52.4 L126.2,4.8 C126.4,2.4 124.2,0.6 122.2,1.4 Z" id="Path" fill="url(#linearGradient-1)"></path>
                            <path d="M84.6,69.8 C83.2,68.6 81.6,67.6 79.8,66.8 L82.2,66 L103,58.4 C102,41.8 89.8,27.6 72.6,24.6 C66.6,23.6 60.6,24 55,25.8 C55,25.8 55,25.8 55,25.8 C50.4,27.4 46.4,29.8 43,32.4 L43,32.4 C37,37.2 32.6,43.8 30.6,51.6 C30.4,52.6 30.2,53.4 30,54.4 C28.6,62.4 29.8,70.4 33.4,77.2 C35.2,80.8 43.2,93.4 45.4,96 L26.2,103 C27.8,119 39.8,132.8 56.4,135.6 C67.6,137.6 78.4,134.2 86.6,127.4 C86.6,127.4 86.6,127.4 86.6,127.4 C93,122 97.4,114.6 99,105.8 C100.4,97.8 99,89.8 95.6,83 C93,77.8 89.2,73.4 84.6,69.8 Z" id="Path" fill="url(#linearGradient-2)"></path>
                        </g>
                        <g id="Group" transform="translate(136.000000, 24.000000)">
                            <path d="M70.4285714,79.3357143 C69.8071429,79.3357143 69.1857143,79.9571429 69.3928571,80.7857143 C71.2571429,85.7571429 74.9857143,90.5214286 80.5785714,94.6642857 C86.3785714,99.0142857 93.4214286,102.535714 101.5,104.814286 C101.914286,105.021429 102.328571,105.435714 102.328571,105.85 L102.328571,113.721429 C102.328571,114.342857 101.707143,114.964286 101.085714,114.757143 C82.4428571,109.578571 69.3928571,101.292857 61.9357143,89.4857143 C61.5214286,88.8642857 60.6928571,88.8642857 60.2785714,89.2785714 C54.6857143,95.4928571 47.0214286,100.878571 36.8714286,105.642857 C26.3071429,110.407143 15.1214286,113.721429 3.10714286,115.171429 C2.48571429,115.171429 1.86428571,114.757143 1.86428571,114.135714 L1.86428571,106.264286 C1.86428571,105.85 2.27857143,105.228571 2.69285714,105.228571 C18.4357143,103.157143 32.1071429,98.1857143 43.2928571,90.5214286 C47.85,87.4142857 51.1642857,84.3071429 53.4428571,81.2 C53.8571429,80.5785714 53.4428571,79.5428571 52.6142857,79.5428571 L4.35,79.5428571 C3.72857143,79.5428571 3.31428571,79.1285714 3.31428571,78.5071429 L3.31428571,70.8428571 C3.31428571,70.2214286 3.72857143,69.8071429 4.35,69.8071429 L55.9285714,69.8071429 C56.55,69.8071429 56.9642857,69.3928571 56.9642857,68.7714286 L56.9642857,27.9642857 C56.9642857,27.3428571 57.3785714,26.9285714 58,26.9285714 L66.9071429,26.9285714 C67.5285714,26.9285714 67.9428571,27.3428571 67.9428571,27.9642857 L67.9428571,68.7714286 C67.9428571,69.3928571 68.3571429,69.8071429 68.9785714,69.8071429 L99.4285714,69.8071429 C100.05,69.8071429 100.464286,70.2214286 100.464286,70.8428571 L100.464286,78.5071429 C100.464286,79.1285714 100.05,79.5428571 99.4285714,79.5428571 L70.4285714,79.3357143 Z" id="Path" fill="#0066B7"></path>
                            <path d="M59.0357143,10.5642857 L99.8428571,10.5642857 C100.464286,10.5642857 100.878571,10.9785714 100.878571,11.6 L100.878571,31.9 C100.878571,32.5214286 100.464286,32.9357143 99.8428571,32.9357143 L90.5214286,32.9357143 C89.9,32.9357143 89.4857143,32.5214286 89.4857143,31.9 L89.4857143,21.3357143 C89.4857143,20.7142857 89.0714286,20.3 88.45,20.3 L16.3642857,20.3 C15.7428571,20.3 15.3285714,20.7142857 15.3285714,21.3357143 L15.3285714,31.9 C15.3285714,32.5214286 14.9142857,32.9357143 14.2928571,32.9357143 L4.97142857,32.9357143 C4.35,32.9357143 3.93571429,32.5214286 3.93571429,31.9 L3.93571429,11.6 C3.93571429,10.9785714 4.35,10.5642857 4.97142857,10.5642857 L45.5714286,10.5642857 C46.1928571,10.5642857 46.6071429,10.15 46.6071429,9.52857143 L46.6071429,2.07142857 C46.6071429,1.45 47.0214286,1.03571429 47.6428571,1.03571429 L56.9642857,1.03571429 C57.5857143,1.03571429 58,1.45 58,2.07142857 L58,9.52857143 C58,10.15 58.4142857,10.5642857 59.0357143,10.5642857 Z" id="Path" fill="#0066B7"></path>
                            <path d="M138.992857,22.1642857 L138.992857,2.07142857 C138.992857,1.45 138.578571,1.03571429 137.957143,1.03571429 L129.464286,1.03571429 C128.842857,1.03571429 128.428571,1.45 128.428571,2.07142857 L128.428571,22.1642857 C128.428571,22.7857143 128.014286,23.2 127.392857,23.2 L120.764286,23.2 C120.142857,23.2 119.728571,23.6142857 119.728571,24.2357143 L119.728571,31.9 C119.728571,32.5214286 120.142857,32.9357143 120.764286,32.9357143 L127.392857,32.9357143 C128.014286,32.9357143 128.428571,33.35 128.428571,33.9714286 L128.428571,113.1 C128.428571,113.721429 128.842857,114.135714 129.464286,114.135714 L137.957143,114.135714 C138.578571,114.135714 138.992857,113.721429 138.992857,113.1 L138.992857,33.9714286 C138.992857,33.35 139.407143,32.9357143 140.028571,32.9357143 L145.828571,32.9357143 C146.45,32.9357143 146.864286,32.5214286 146.864286,31.9 L146.864286,24.2357143 C146.864286,23.6142857 146.45,23.2 145.828571,23.2 L140.028571,23.2 C139.407143,23.2 138.992857,22.5785714 138.992857,22.1642857 Z M206.314286,76.6428571 L206.314286,70.6357143 C206.314286,70.0142857 205.9,69.6 205.278571,69.6 L196.164286,69.6 C195.542857,69.6 195.128571,70.0142857 195.128571,70.6357143 L195.128571,76.6428571 C195.128571,77.2642857 194.714286,77.6785714 194.092857,77.6785714 L146.657143,77.6785714 C146.035714,77.6785714 145.621429,78.0928571 145.621429,78.7142857 L145.621429,84.9285714 C145.621429,85.55 146.035714,85.9642857 146.657143,85.9642857 L194.092857,85.9642857 C194.714286,85.9642857 195.128571,86.3785714 195.128571,87 C194.921429,92.3857143 193.885714,96.1142857 192.435714,98.3928571 C190.571429,101.085714 187.257143,103.157143 182.285714,104.192857 C181.871429,104.4 181.457143,104.814286 181.457143,105.228571 L181.457143,113.514286 C181.457143,114.135714 182.078571,114.757143 182.7,114.55 C191.4,112.892857 197.407143,109.992857 200.928571,105.85 C204.242857,101.914286 205.9,95.4928571 206.314286,86.7928571 C206.314286,86.1714286 206.728571,85.7571429 207.35,85.7571429 L218.95,85.7571429 C219.571429,85.7571429 219.985714,85.3428571 219.985714,84.7214286 L219.985714,78.5071429 C219.985714,77.8857143 219.571429,77.4714286 218.95,77.4714286 L207.35,77.4714286 C206.728571,77.6785714 206.314286,77.2642857 206.314286,76.6428571 Z" id="Shape" fill="#0066B7"></path>
                            <path d="M218.535714,16.7785714 L218.535714,10.5642857 C218.535714,9.94285714 218.121429,9.52857143 217.5,9.52857143 L211.7,9.52857143 C211.285714,9.52857143 210.871429,9.11428571 210.664286,8.7 C210.25,7.04285714 209.835714,5.59285714 209.835714,4.35 C209.835714,3.72857143 209.421429,3.31428571 208.8,3.31428571 C206.935714,3.31428571 202.378571,3.31428571 200.307143,3.31428571 C199.685714,3.31428571 199.271429,3.93571429 199.271429,4.35 C199.478571,5.59285714 199.685714,6.83571429 199.892857,8.07857143 C200.1,8.7 199.685714,9.32142857 198.857143,9.32142857 L189.328571,9.32142857 C188.707143,9.32142857 188.292857,8.90714286 188.292857,8.28571429 L188.292857,2.07142857 C188.292857,1.45 187.878571,1.03571429 187.257143,1.03571429 L178.35,1.03571429 C177.728571,1.03571429 177.314286,1.45 177.314286,2.07142857 L177.314286,8.7 C177.314286,9.32142857 176.9,9.73571429 176.278571,9.73571429 L148.314286,9.73571429 C147.692857,9.73571429 147.278571,10.15 147.278571,10.7714286 L147.278571,16.9857143 C147.278571,17.6071429 147.692857,18.0214286 148.314286,18.0214286 L176.278571,18.0214286 C176.9,18.0214286 177.314286,18.4357143 177.314286,19.0571429 L177.314286,25.6857143 C177.314286,26.3071429 176.9,26.7214286 176.278571,26.7214286 L152.042857,26.7214286 C151.421429,26.7214286 151.007143,27.1357143 151.007143,27.7571429 L151.007143,65.25 C151.007143,65.8714286 151.421429,66.2857143 152.042857,66.2857143 L213.771429,66.2857143 C214.392857,66.2857143 214.807143,65.8714286 214.807143,65.25 L214.807143,27.7571429 C214.807143,27.1357143 214.392857,26.7214286 213.771429,26.7214286 L189.328571,26.7214286 C188.707143,26.7214286 188.292857,26.3071429 188.292857,25.6857143 L188.292857,19.0571429 C188.292857,18.4357143 188.707143,18.0214286 189.328571,18.0214286 L217.5,18.0214286 C218.121429,17.8142857 218.535714,17.4 218.535714,16.7785714 Z M176.485714,58.8285714 L162.192857,58.8285714 C161.571429,58.8285714 161.157143,58.4142857 161.157143,57.7928571 L161.157143,51.1642857 C161.157143,50.5428571 161.571429,50.1285714 162.192857,50.1285714 L176.485714,50.1285714 C177.107143,50.1285714 177.521429,50.5428571 177.521429,51.1642857 L177.521429,57.7928571 C177.521429,58.4142857 177.107143,58.8285714 176.485714,58.8285714 Z M176.485714,42.8785714 L162.192857,42.8785714 C161.571429,42.8785714 161.157143,42.4642857 161.157143,41.8428571 L161.157143,35.6285714 C161.157143,35.0071429 161.571429,34.5928571 162.192857,34.5928571 L176.485714,34.5928571 C177.107143,34.5928571 177.521429,35.0071429 177.521429,35.6285714 L177.521429,41.8428571 C177.521429,42.2571429 177.107143,42.8785714 176.485714,42.8785714 Z M188.5,57.7928571 L188.5,51.1642857 C188.5,50.5428571 188.914286,50.1285714 189.535714,50.1285714 L203.828571,50.1285714 C204.45,50.1285714 204.864286,50.5428571 204.864286,51.1642857 L204.864286,57.7928571 C204.864286,58.4142857 204.45,58.8285714 203.828571,58.8285714 L189.535714,58.8285714 C188.914286,58.8285714 188.5,58.4142857 188.5,57.7928571 Z M204.864286,35.6285714 L204.864286,41.8428571 C204.864286,42.4642857 204.45,42.8785714 203.828571,42.8785714 L189.535714,42.8785714 C188.914286,42.8785714 188.5,42.4642857 188.5,41.8428571 L188.5,35.6285714 C188.5,35.0071429 188.914286,34.5928571 189.535714,34.5928571 L203.828571,34.5928571 C204.45,34.5928571 204.864286,35.0071429 204.864286,35.6285714 Z" id="Shape" fill="#0066B7"></path>
                            <path d="M46.1928571,34.8 L46.1928571,41.8428571 C46.1928571,42.4642857 45.7785714,42.8785714 45.1571429,42.8785714 L22.9928571,42.8785714 C22.3714286,42.8785714 21.9571429,42.4642857 21.9571429,41.8428571 L21.9571429,34.8 C21.9571429,34.1785714 22.3714286,33.7642857 22.9928571,33.7642857 L45.1571429,33.7642857 C45.7785714,33.7642857 46.1928571,34.1785714 46.1928571,34.8 Z" id="Path" fill="#0066B7"></path>
                            <path d="M46.1928571,53.2357143 L46.1928571,60.2785714 C46.1928571,60.9 45.7785714,61.3142857 45.1571429,61.3142857 L22.9928571,61.3142857 C22.3714286,61.3142857 21.9571429,60.9 21.9571429,60.2785714 L21.9571429,53.2357143 C21.9571429,52.6142857 22.3714286,52.2 22.9928571,52.2 L45.1571429,52.2 C45.7785714,52.2 46.1928571,52.6142857 46.1928571,53.2357143 Z" id="Path" fill="#0066B7"></path>
                            <circle id="Oval" fill="#FD477C" cx="164.057143" cy="100.257143" r="8.49285714"></circle>
                        </g>
                    </g>
                </g>
            </g>
        </g>
    </g>
</svg>