<?xml version="1.0" encoding="utf-8"?>
<!-- Generator: Adobe Illustrator 24.3.0, SVG Export Plug-In . SVG Version: 6.00 Build 0)  -->
<svg version="1.1" id="_x31_0bet" xmlns="http://www.w3.org/2000/svg" xmlns:xlink="http://www.w3.org/1999/xlink" x="0px" y="0px"
	 viewBox="0 0 37 23" style="enable-background:new 0 0 37 23;" xml:space="preserve">
<style type="text/css">
	.st0{filter:url(#Adobe_OpacityMaskFilter);}
	.st1{fill-rule:evenodd;clip-rule:evenodd;fill:#FFFFFF;}
	.st2{mask:url(#mask-2_1_);fill-rule:evenodd;clip-rule:evenodd;fill:#FFFFFF;}
	.st3{fill-rule:evenodd;clip-rule:evenodd;fill:#E93E50;}
</style>
<g id="Symbols">
	<g id="Header-_x2F_-Login-_x2F_-Before" transform="translate(-10.000000, -14.000000)">
		<g id="logo_x2F_10bet" transform="translate(10.000000, 14.050909)">
			<g id="Group-7" transform="translate(0.000000, 0.160831)">
				<g id="Clip-6">
				</g>
				<defs>
					<filter id="Adobe_OpacityMaskFilter" filterUnits="userSpaceOnUse" x="0" y="0.8" width="27.3" height="20.9">
						<feColorMatrix  type="matrix" values="1 0 0 0 0  0 1 0 0 0  0 0 1 0 0  0 0 0 1 0"/>
					</filter>
				</defs>
				<mask maskUnits="userSpaceOnUse" x="0" y="0.8" width="27.3" height="20.9" id="mask-2_1_">
					<g class="st0">
						<polygon id="path-1_1_" class="st1" points="0,0.8 27.3,0.8 27.3,21.7 0,21.7 						"/>
					</g>
				</mask>
				<path id="Fill-5" class="st2" d="M0,1.3h7.2v6c1.2-2.6,3-4.5,5.6-5.7c2.6-1.1,5.2-1.1,7.9-0.1c4.1,1.6,6.7,5.6,6.6,10
					c-0.1,4.7-3.4,8.6-7.6,9.7c-2.5,0.7-5,0.5-7.4-0.7c-2.3-1.2-4-3-5-5.4v6H0V1.3z M18.7,5.9C18.7,5.9,18.7,5.9,18.7,5.9
					c0.7-0.7,0.6-1.9-0.3-2.4c-0.3-0.2-0.6-0.2-1-0.2H15h-0.2v5.3h0.1h2.7c0.4,0,0.8-0.1,1.2-0.4C19.3,7.7,19.5,6.5,18.7,5.9
					L18.7,5.9z M16.4,11.1v-0.5H19V9.2h-4.2v5.3H19V13h-2.5v-0.5h2.3v-1.4H16.4z M17.6,19.9v-3.4H19V15h-4.2v1.5h1.4v3.3L17.6,19.9z
					"/>
			</g>
			<path id="Fill-8" class="st1" d="M16.4,5.4V4.8c0.3,0,0.6,0,0.8,0c0.2,0,0.2,0.1,0.2,0.3c0,0.2-0.1,0.3-0.2,0.3H16.4 M16.4,7.4
				V6.8c0.3,0,0.6,0,0.9,0c0.2,0,0.2,0.1,0.2,0.3c0,0.2-0.1,0.3-0.3,0.3h-0.1H16.4"/>
			<path id="Fill-10" class="st3" d="M33.4,20.6c-0.4-0.2-0.7-0.5-1.1-0.8c0.2-0.2,0.3-0.3,0.5-0.5c-0.2,0-0.3,0-0.5,0v-0.8h0.2h2.1
				c0.2,0,0.2,0,0.2-0.2v-0.1h0.9c0,0,0,0,0,0c0,0.3,0,0.3,0.3,0.3h0.6v0.7c0,0-0.1,0.1-0.1,0.1h-0.6c-0.1,0-0.2,0-0.2,0.2v0.8
				c0,0.4-0.2,1-1,1c-0.2,0-0.4,0-0.6,0c0,0-0.1,0-0.1-0.1c-0.1-0.2-0.2-0.5-0.3-0.7h0.3c0.2,0,0.3,0,0.4,0c0.2,0,0.3-0.2,0.3-0.3
				v-0.7c0-0.1,0-0.1-0.1-0.1h-1.5c0,0,0,0-0.1,0c0.3,0.2,0.6,0.4,0.9,0.6C33.8,20.2,33.6,20.4,33.4,20.6L33.4,20.6z M30.8,21.3
				h-0.9v-0.2v-5.9c0-0.2,0-0.2-0.2-0.2h-0.9v-0.7c0,0,0.1-0.1,0.1-0.1h0.8c0.1,0,0.2,0,0.2-0.2v-1.9V12h0.9v0.2V14
				c0,0.2,0,0.2,0.2,0.2h0.8c0.1,0,0.2,0,0.2,0.2V15h-0.9c-0.2,0-0.2,0-0.2,0.2v5.9L30.8,21.3L30.8,21.3z M32.2,10.3v-0.2v-4
				c0-0.3,0-0.3-0.3-0.3h-3c-0.2,0-0.2,0-0.2-0.2c0-0.2,0-0.4,0-0.7H29H32c0.2,0,0.2,0,0.2-0.2V1.7V1.5h0.9v0.2v3.1
				c0,0.2,0,0.2,0.2,0.2h3h0.2v0.8c0,0,0,0.1-0.1,0.1c0,0-0.1,0-0.1,0h-2.9c-0.4,0-0.4,0-0.4,0.4v3.9c0,0.2,0,0.2-0.2,0.2H32.2z
				 M36.6,17.9h-0.9v-0.2c0-0.1,0-0.2-0.2-0.2h-0.4c-0.1,0-0.2,0-0.2,0.2v0.2H34v-0.4h-0.7c0,0-0.1,0.1-0.1,0.2c0,0.2,0,0.2-0.2,0.2
				h-0.7v-0.2v-3.3c0-0.1,0-0.2,0.2-0.2h1.4c0.2,0,0.2-0.1,0.2-0.2c0-0.1,0-0.2-0.2-0.2h-1.3c-0.2,0-0.2,0-0.2-0.2
				c0-0.2,0-0.3,0-0.4c0-0.1,0-0.2,0.2-0.2h1.4c0.1,0,0.2,0,0.2-0.2V12h0.9v0.7c0,0.3,0,0.3,0.3,0.3h0.5c0,0,0,0,0,0
				c-0.2-0.1-0.3-0.2-0.5-0.3c0.2-0.2,0.4-0.4,0.6-0.7c0.3,0.2,0.5,0.4,0.8,0.5c-0.1,0.2-0.2,0.3-0.4,0.5c0.2,0,0.3,0,0.4,0v0.8
				h-0.2h-1.3c-0.2,0-0.2,0.1-0.2,0.2c0,0.1,0,0.2,0.2,0.2h1.4c0.1,0,0.1,0,0.1,0.1L36.6,17.9C36.6,17.8,36.6,17.8,36.6,17.9
				L36.6,17.9z M35.3,15.4h0.1c0.3,0,0.3,0,0.3-0.3c0-0.1,0-0.1-0.1-0.1h-0.4c-0.2,0-0.2,0-0.2,0.2c0,0.2,0,0.2,0.2,0.2
				C35.1,15.4,35.2,15.4,35.3,15.4L35.3,15.4z M33.6,15.4h0.1c0.3,0,0.3,0.1,0.3-0.3c0-0.1,0-0.1-0.1-0.1h-0.4c-0.2,0-0.2,0-0.2,0.2
				c0,0.2,0,0.2,0.2,0.2C33.5,15.4,33.5,15.4,33.6,15.4L33.6,15.4z M33.6,16.7h0.1c0.3,0,0.3,0.1,0.3-0.3c0-0.1,0-0.1-0.1-0.1h-0.4
				c-0.2,0-0.2,0-0.2,0.2c0,0.2,0,0.2,0.2,0.2C33.5,16.7,33.5,16.7,33.6,16.7L33.6,16.7z M35.3,16.7h0.2c0.2,0,0.2,0,0.2-0.2v-0.1
				c0-0.1,0-0.1-0.1-0.1h-0.4c-0.2,0-0.2,0-0.2,0.2c0,0.2,0,0.2,0.2,0.2H35.3z"/>
		</g>
	</g>
</g>
</svg>
