<?xml version="1.0" encoding="UTF-8"?>
<svg width="178px" height="82px" viewBox="0 0 178 82" version="1.1" xmlns="http://www.w3.org/2000/svg" xmlns:xlink="http://www.w3.org/1999/xlink">
    <title>LOGO / SBet / Light@1x</title>
    <defs>
        <linearGradient x1="-0.308948063%" y1="49.9976095%" x2="99.796348%" y2="49.9976095%" id="linearGradient-1">
            <stop stop-color="#00D9FF" offset="0%"></stop>
            <stop stop-color="#0088FF" offset="50%"></stop>
            <stop stop-color="#54D2FD" offset="100%"></stop>
        </linearGradient>
        <linearGradient x1="66.5487674%" y1="8.03776865%" x2="33.3035903%" y2="92.0904645%" id="linearGradient-2">
            <stop stop-color="#00D9FF" offset="0%"></stop>
            <stop stop-color="#0088FF" offset="100%"></stop>
        </linearGradient>
    </defs>
    <g id="LOGO-/-SBet-/-Light" stroke="none" stroke-width="1" fill="none" fill-rule="evenodd">
        <g id="Group" transform="translate(0.000000, 0.500000)" fill-rule="nonzero">
            <path d="M61.1,0.7 L27.5,12.9 C27.5,12.9 27.5,12.9 27.5,12.9 C25.2,13.7 23.2,14.9 21.5,16.2 L21.5,16.2 C18.5,18.6 16.3,21.9 15.3,25.8 C15.2,26.3 15.1,26.7 15,27.2 C14.3,31.2 14.9,35.2 16.7,38.6 C17.4,40 19.9,44 21.6,46.4 C22.2,47.2 21.8,48.3 20.9,48.7 L13.2,51.5 L6.2,54.1 C5.7,54.3 5.4,54.7 5.3,55.1 L0.5,78.8 C0.3,79.9 1.4,80.9 2.5,80.5 L35.9,68.3 C38.9,67.2 41.4,65.6 43.4,63.8 C43.4,63.8 43.4,63.8 43.4,63.8 C46.6,61.1 48.8,57.4 49.6,53 C50.3,49 49.6,45 47.9,41.6 C46.6,39 44.7,36.7 42.4,35 C41.7,34.4 40.9,33.9 40,33.5 L41.2,33.1 L51.6,29.3 L57.3,27.2 C57.8,27 58.1,26.6 58.2,26.2 L63.1,2.4 C63.2,1.2 62.1,0.3 61.1,0.7 Z" id="Path" fill="url(#linearGradient-1)"></path>
            <path d="M42.3,34.9 C41.6,34.3 40.8,33.8 39.9,33.4 L41.1,33 L51.5,29.2 C51,20.9 44.9,13.8 36.3,12.3 C33.3,11.8 30.3,12 27.5,12.9 C27.5,12.9 27.5,12.9 27.5,12.9 C25.2,13.7 23.2,14.9 21.5,16.2 L21.5,16.2 C18.5,18.6 16.3,21.9 15.3,25.8 C15.2,26.3 15.1,26.7 15,27.2 C14.3,31.2 14.9,35.2 16.7,38.6 C17.6,40.4 21.6,46.7 22.7,48 L13.1,51.5 C13.9,59.5 19.9,66.4 28.2,67.8 C33.8,68.8 39.2,67.1 43.3,63.7 C43.3,63.7 43.3,63.7 43.3,63.7 C46.5,61 48.7,57.3 49.5,52.9 C50.2,48.9 49.5,44.9 47.8,41.5 C46.5,38.9 44.6,36.7 42.3,34.9 Z" id="Path" fill="url(#linearGradient-2)"></path>
        </g>
        <g id="Group" transform="translate(68.000000, 12.000000)" fill-rule="nonzero">
            <path d="M35.2142857,39.6678571 C34.9035714,39.6678571 34.5928571,39.9785714 34.6964286,40.3928571 C35.6285714,42.8785714 37.4928571,45.2607143 40.2892857,47.3321429 C43.1892857,49.5071429 46.7107143,51.2678571 50.75,52.4071429 C50.9571429,52.5107143 51.1642857,52.7178571 51.1642857,52.925 L51.1642857,56.8607143 C51.1642857,57.1714286 50.8535714,57.4821429 50.5428571,57.3785714 C41.2214286,54.7892857 34.6964286,50.6464286 30.9678571,44.7428571 C30.7607143,44.4321429 30.3464286,44.4321429 30.1392857,44.6392857 C27.3428571,47.7464286 23.5107143,50.4392857 18.4357143,52.8214286 C13.1535714,55.2035714 7.56071429,56.8607143 1.55357143,57.5857143 C1.24285714,57.5857143 0.932142857,57.3785714 0.932142857,57.0678571 L0.932142857,53.1321429 C0.932142857,52.925 1.13928571,52.6142857 1.34642857,52.6142857 C9.21785714,51.5785714 16.0535714,49.0928571 21.6464286,45.2607143 C23.925,43.7071429 25.5821429,42.1535714 26.7214286,40.6 C26.9285714,40.2892857 26.7214286,39.7714286 26.3071429,39.7714286 L2.175,39.7714286 C1.86428571,39.7714286 1.65714286,39.5642857 1.65714286,39.2535714 L1.65714286,35.4214286 C1.65714286,35.1107143 1.86428571,34.9035714 2.175,34.9035714 L27.9642857,34.9035714 C28.275,34.9035714 28.4821429,34.6964286 28.4821429,34.3857143 L28.4821429,13.9821429 C28.4821429,13.6714286 28.6892857,13.4642857 29,13.4642857 L33.4535714,13.4642857 C33.7642857,13.4642857 33.9714286,13.6714286 33.9714286,13.9821429 L33.9714286,34.3857143 C33.9714286,34.6964286 34.1785714,34.9035714 34.4892857,34.9035714 L49.7142857,34.9035714 C50.025,34.9035714 50.2321429,35.1107143 50.2321429,35.4214286 L50.2321429,39.2535714 C50.2321429,39.5642857 50.025,39.7714286 49.7142857,39.7714286 L35.2142857,39.6678571 Z" id="Path" fill="#FFFFFF"></path>
            <path d="M29.5178571,5.28214286 L49.9214286,5.28214286 C50.2321429,5.28214286 50.4392857,5.48928571 50.4392857,5.8 L50.4392857,15.95 C50.4392857,16.2607143 50.2321429,16.4678571 49.9214286,16.4678571 L45.2607143,16.4678571 C44.95,16.4678571 44.7428571,16.2607143 44.7428571,15.95 L44.7428571,10.6678571 C44.7428571,10.3571429 44.5357143,10.15 44.225,10.15 L8.18214286,10.15 C7.87142857,10.15 7.66428571,10.3571429 7.66428571,10.6678571 L7.66428571,15.95 C7.66428571,16.2607143 7.45714286,16.4678571 7.14642857,16.4678571 L2.48571429,16.4678571 C2.175,16.4678571 1.96785714,16.2607143 1.96785714,15.95 L1.96785714,5.8 C1.96785714,5.48928571 2.175,5.28214286 2.48571429,5.28214286 L22.7857143,5.28214286 C23.0964286,5.28214286 23.3035714,5.075 23.3035714,4.76428571 L23.3035714,1.03571429 C23.3035714,0.725 23.5107143,0.517857143 23.8214286,0.517857143 L28.4821429,0.517857143 C28.7928571,0.517857143 29,0.725 29,1.03571429 L29,4.76428571 C29,5.075 29.2071429,5.28214286 29.5178571,5.28214286 Z" id="Path" fill="#FFFFFF"></path>
            <path d="M69.4964286,11.0821429 L69.4964286,1.03571429 C69.4964286,0.725 69.2892857,0.517857143 68.9785714,0.517857143 L64.7321429,0.517857143 C64.4214286,0.517857143 64.2142857,0.725 64.2142857,1.03571429 L64.2142857,11.0821429 C64.2142857,11.3928571 64.0071429,11.6 63.6964286,11.6 L60.3821429,11.6 C60.0714286,11.6 59.8642857,11.8071429 59.8642857,12.1178571 L59.8642857,15.95 C59.8642857,16.2607143 60.0714286,16.4678571 60.3821429,16.4678571 L63.6964286,16.4678571 C64.0071429,16.4678571 64.2142857,16.675 64.2142857,16.9857143 L64.2142857,56.55 C64.2142857,56.8607143 64.4214286,57.0678571 64.7321429,57.0678571 L68.9785714,57.0678571 C69.2892857,57.0678571 69.4964286,56.8607143 69.4964286,56.55 L69.4964286,16.9857143 C69.4964286,16.675 69.7035714,16.4678571 70.0142857,16.4678571 L72.9142857,16.4678571 C73.225,16.4678571 73.4321429,16.2607143 73.4321429,15.95 L73.4321429,12.1178571 C73.4321429,11.8071429 73.225,11.6 72.9142857,11.6 L70.0142857,11.6 C69.7035714,11.6 69.4964286,11.2892857 69.4964286,11.0821429 Z M103.157143,38.3214286 L103.157143,35.3178571 C103.157143,35.0071429 102.95,34.8 102.639286,34.8 L98.0821429,34.8 C97.7714286,34.8 97.5642857,35.0071429 97.5642857,35.3178571 L97.5642857,38.3214286 C97.5642857,38.6321429 97.3571429,38.8392857 97.0464286,38.8392857 L73.3285714,38.8392857 C73.0178571,38.8392857 72.8107143,39.0464286 72.8107143,39.3571429 L72.8107143,42.4642857 C72.8107143,42.775 73.0178571,42.9821429 73.3285714,42.9821429 L97.0464286,42.9821429 C97.3571429,42.9821429 97.5642857,43.1892857 97.5642857,43.5 C97.4607143,46.1928571 96.9428571,48.0571429 96.2178571,49.1964286 C95.2857143,50.5428571 93.6285714,51.5785714 91.1428571,52.0964286 C90.9357143,52.2 90.7285714,52.4071429 90.7285714,52.6142857 L90.7285714,56.7571429 C90.7285714,57.0678571 91.0392857,57.3785714 91.35,57.275 C95.7,56.4464286 98.7035714,54.9964286 100.464286,52.925 C102.121429,50.9571429 102.95,47.7464286 103.157143,43.3964286 C103.157143,43.0857143 103.364286,42.8785714 103.675,42.8785714 L109.475,42.8785714 C109.785714,42.8785714 109.992857,42.6714286 109.992857,42.3607143 L109.992857,39.2535714 C109.992857,38.9428571 109.785714,38.7357143 109.475,38.7357143 L103.675,38.7357143 C103.364286,38.8392857 103.157143,38.6321429 103.157143,38.3214286 Z" id="Shape" fill="#FFFFFF"></path>
            <path d="M109.267857,8.38928571 L109.267857,5.28214286 C109.267857,4.97142857 109.060714,4.76428571 108.75,4.76428571 L105.85,4.76428571 C105.642857,4.76428571 105.435714,4.55714286 105.332143,4.35 C105.125,3.52142857 104.917857,2.79642857 104.917857,2.175 C104.917857,1.86428571 104.710714,1.65714286 104.4,1.65714286 C103.467857,1.65714286 101.189286,1.65714286 100.153571,1.65714286 C99.8428571,1.65714286 99.6357143,1.96785714 99.6357143,2.175 C99.7392857,2.79642857 99.8428571,3.41785714 99.9464286,4.03928571 C100.05,4.35 99.8428571,4.66071429 99.4285714,4.66071429 L94.6642857,4.66071429 C94.3535714,4.66071429 94.1464286,4.45357143 94.1464286,4.14285714 L94.1464286,1.03571429 C94.1464286,0.725 93.9392857,0.517857143 93.6285714,0.517857143 L89.175,0.517857143 C88.8642857,0.517857143 88.6571429,0.725 88.6571429,1.03571429 L88.6571429,4.35 C88.6571429,4.66071429 88.45,4.86785714 88.1392857,4.86785714 L74.1571429,4.86785714 C73.8464286,4.86785714 73.6392857,5.075 73.6392857,5.38571429 L73.6392857,8.49285714 C73.6392857,8.80357143 73.8464286,9.01071429 74.1571429,9.01071429 L88.1392857,9.01071429 C88.45,9.01071429 88.6571429,9.21785714 88.6571429,9.52857143 L88.6571429,12.8428571 C88.6571429,13.1535714 88.45,13.3607143 88.1392857,13.3607143 L76.0214286,13.3607143 C75.7107143,13.3607143 75.5035714,13.5678571 75.5035714,13.8785714 L75.5035714,32.625 C75.5035714,32.9357143 75.7107143,33.1428571 76.0214286,33.1428571 L106.885714,33.1428571 C107.196429,33.1428571 107.403571,32.9357143 107.403571,32.625 L107.403571,13.8785714 C107.403571,13.5678571 107.196429,13.3607143 106.885714,13.3607143 L94.6642857,13.3607143 C94.3535714,13.3607143 94.1464286,13.1535714 94.1464286,12.8428571 L94.1464286,9.52857143 C94.1464286,9.21785714 94.3535714,9.01071429 94.6642857,9.01071429 L108.75,9.01071429 C109.060714,8.90714286 109.267857,8.7 109.267857,8.38928571 Z M88.2428571,29.4142857 L81.0964286,29.4142857 C80.7857143,29.4142857 80.5785714,29.2071429 80.5785714,28.8964286 L80.5785714,25.5821429 C80.5785714,25.2714286 80.7857143,25.0642857 81.0964286,25.0642857 L88.2428571,25.0642857 C88.5535714,25.0642857 88.7607143,25.2714286 88.7607143,25.5821429 L88.7607143,28.8964286 C88.7607143,29.2071429 88.5535714,29.4142857 88.2428571,29.4142857 Z M88.2428571,21.4392857 L81.0964286,21.4392857 C80.7857143,21.4392857 80.5785714,21.2321429 80.5785714,20.9214286 L80.5785714,17.8142857 C80.5785714,17.5035714 80.7857143,17.2964286 81.0964286,17.2964286 L88.2428571,17.2964286 C88.5535714,17.2964286 88.7607143,17.5035714 88.7607143,17.8142857 L88.7607143,20.9214286 C88.7607143,21.1285714 88.5535714,21.4392857 88.2428571,21.4392857 Z M94.25,28.8964286 L94.25,25.5821429 C94.25,25.2714286 94.4571429,25.0642857 94.7678571,25.0642857 L101.914286,25.0642857 C102.225,25.0642857 102.432143,25.2714286 102.432143,25.5821429 L102.432143,28.8964286 C102.432143,29.2071429 102.225,29.4142857 101.914286,29.4142857 L94.7678571,29.4142857 C94.4571429,29.4142857 94.25,29.2071429 94.25,28.8964286 Z M102.432143,17.8142857 L102.432143,20.9214286 C102.432143,21.2321429 102.225,21.4392857 101.914286,21.4392857 L94.7678571,21.4392857 C94.4571429,21.4392857 94.25,21.2321429 94.25,20.9214286 L94.25,17.8142857 C94.25,17.5035714 94.4571429,17.2964286 94.7678571,17.2964286 L101.914286,17.2964286 C102.225,17.2964286 102.432143,17.5035714 102.432143,17.8142857 Z" id="Shape" fill="#FFFFFF"></path>
            <path d="M23.0964286,17.4 L23.0964286,20.9214286 C23.0964286,21.2321429 22.8892857,21.4392857 22.5785714,21.4392857 L11.4964286,21.4392857 C11.1857143,21.4392857 10.9785714,21.2321429 10.9785714,20.9214286 L10.9785714,17.4 C10.9785714,17.0892857 11.1857143,16.8821429 11.4964286,16.8821429 L22.5785714,16.8821429 C22.8892857,16.8821429 23.0964286,17.0892857 23.0964286,17.4 Z" id="Path" fill="#FFFFFF"></path>
            <path d="M23.0964286,26.6178571 L23.0964286,30.1392857 C23.0964286,30.45 22.8892857,30.6571429 22.5785714,30.6571429 L11.4964286,30.6571429 C11.1857143,30.6571429 10.9785714,30.45 10.9785714,30.1392857 L10.9785714,26.6178571 C10.9785714,26.3071429 11.1857143,26.1 11.4964286,26.1 L22.5785714,26.1 C22.8892857,26.1 23.0964286,26.3071429 23.0964286,26.6178571 Z" id="Path" fill="#FFFFFF"></path>
            <circle id="Oval" fill="#FD477C" cx="82.0285714" cy="50.1285714" r="4.24642857"></circle>
        </g>
    </g>
</svg>