<?xml version="1.0" encoding="utf-8"?>
<!-- Generator: Adobe Illustrator 25.4.1, SVG Export Plug-In . SVG Version: 6.00 Build 0)  -->
<svg version="1.1" id="圖層_1" xmlns="http://www.w3.org/2000/svg" xmlns:xlink="http://www.w3.org/1999/xlink" x="0px" y="0px"
	 viewBox="0 0 89 40" style="enable-background:new 0 0 89 40;" xml:space="preserve">
<style type="text/css">
	.st0{fill:#FFFFFF;}
	.st1{fill:#FD477C;}
	.st2{fill:url(#SVGID_1_);}
	.st3{fill:url(#SVGID_00000064332831524465633500000014257957008932352930_);}
</style>
<g>
	<g>
		<g>
			<g>
				<path class="st0" d="M51.8,25.2c-0.2,0-0.3,0.2-0.2,0.3c0.4,1.2,1.3,2.3,2.7,3.4s3.1,1.9,5.1,2.5c0.1,0,0.2,0.1,0.2,0.2v1.9
					c0,0.2-0.2,0.3-0.3,0.2c-4.5-1.2-7.7-3.3-9.4-6.1c-0.1-0.1-0.3-0.2-0.4,0c-1.3,1.5-3.2,2.8-5.6,3.9c-2.5,1.2-5.3,1.9-8.1,2.3
					c-0.1,0-0.3-0.1-0.3-0.3v-1.9c0-0.1,0.1-0.2,0.2-0.2c3.8-0.5,7.1-1.7,9.8-3.6c1.1-0.7,1.9-1.5,2.4-2.2c0.1-0.2,0-0.4-0.2-0.4
					H35.9c-0.1,0-0.3-0.1-0.3-0.3v-1.8c0-0.1,0.1-0.3,0.3-0.3h12.4c0.1,0,0.3-0.1,0.3-0.3v-9.8c0-0.1,0.1-0.3,0.3-0.3H51
					c0.1,0,0.3,0.1,0.3,0.3v9.8c0,0.1,0.1,0.3,0.3,0.3H59c0.1,0,0.3,0.1,0.3,0.3v1.8c0,0.1-0.1,0.3-0.3,0.3
					C59,25.2,51.8,25.2,51.8,25.2z"/>
				<path class="st0" d="M49.1,8.5h9.8c0.1,0,0.3,0.1,0.3,0.3v4.9c0,0.1-0.1,0.3-0.3,0.3h-2.2c-0.1,0-0.3-0.1-0.3-0.3v-2.6
					c0-0.1-0.1-0.3-0.3-0.3H38.8c-0.1,0-0.3,0.1-0.3,0.3v2.6c0,0.1-0.1,0.3-0.3,0.3H36c-0.1,0-0.3-0.1-0.3-0.3V8.8
					c0-0.1,0.1-0.3,0.3-0.3h9.8c0.1,0,0.3-0.1,0.3-0.3V6.5c0-0.1,0.1-0.3,0.3-0.3h2.2c0.1,0,0.3,0.1,0.3,0.3v1.8
					C48.8,8.4,48.9,8.5,49.1,8.5z"/>
				<path class="st0" d="M68.4,11.3V6.5c0-0.1-0.1-0.3-0.3-0.3H66c-0.1,0-0.3,0.1-0.3,0.3v4.9c0,0.1-0.1,0.3-0.3,0.3H64
					c-0.1,0-0.3,0.1-0.3,0.3v1.8c0,0.1,0.1,0.3,0.3,0.3h1.6c0.1,0,0.3,0.1,0.3,0.3v19.1c0,0.1,0.1,0.3,0.3,0.3h2.1
					c0.1,0,0.3-0.1,0.3-0.3V14.2c0-0.1,0.1-0.3,0.3-0.3H70c0.1,0,0.3-0.1,0.3-0.3v-1.8c0-0.1-0.1-0.3-0.3-0.3h-1.4
					C68.5,11.6,68.4,11.5,68.4,11.3z M84.6,24.5V23c0-0.1-0.1-0.3-0.3-0.3h-2.2c-0.1,0-0.3,0.1-0.3,0.3v1.5c0,0.1-0.1,0.3-0.3,0.3
					H70.3c-0.1,0-0.3,0.1-0.3,0.3v1.5c0,0.1,0.1,0.3,0.3,0.3h11.4c0.1,0,0.3,0.1,0.3,0.3c-0.1,1.3-0.3,2.2-0.7,2.8
					c-0.4,0.7-1.3,1.1-2.4,1.4c-0.1,0-0.2,0.1-0.2,0.2v2c0,0.2,0.1,0.3,0.3,0.2c2.1-0.4,3.6-1.1,4.4-2.1c0.8-1,1.2-2.5,1.3-4.6
					c0-0.1,0.1-0.2,0.2-0.2h2.8c0.1,0,0.3-0.1,0.3-0.3V25c0-0.1-0.1-0.3-0.3-0.3h-2.8C84.8,24.8,84.6,24.6,84.6,24.5z"/>
				<path class="st0" d="M87.6,10V8.6c0-0.1-0.1-0.3-0.3-0.3h-1.4c-0.1,0-0.2-0.1-0.2-0.2c-0.1-0.4-0.2-0.8-0.2-1.1
					c0-0.1-0.1-0.2-0.2-0.2c-0.5,0-1.5,0-2,0c-0.1,0-0.3,0.1-0.3,0.3c0,0.3,0,0.6,0.1,0.9c0,0.2-0.1,0.3-0.2,0.3h-2.3
					c-0.1,0-0.3-0.1-0.3-0.3V6.5c0-0.1-0.1-0.3-0.3-0.3h-2.1c-0.1,0-0.3,0.1-0.3,0.3v1.6c0,0.1-0.1,0.3-0.3,0.3h-6.8
					c-0.1,0-0.3,0.1-0.3,0.3V10c0,0.1,0.1,0.3,0.3,0.3h6.8c0.1,0,0.3,0.1,0.3,0.3v1.6c0,0.1-0.1,0.3-0.3,0.3h-5.9
					c-0.1,0-0.3,0.1-0.3,0.3v9.1c0,0.1,0.1,0.3,0.3,0.3h14.9c0.1,0,0.3-0.1,0.3-0.3v-9.1c0-0.1-0.1-0.3-0.3-0.3h-5.9
					c-0.1,0-0.3-0.1-0.3-0.3v-1.6c0-0.1,0.1-0.3,0.3-0.3h6.8C87.5,10.3,87.6,10.2,87.6,10z M77.4,20.2H74c-0.1,0-0.3-0.1-0.3-0.3
					v-1.6c0-0.1,0.1-0.3,0.3-0.3h3.4c0.1,0,0.3,0.1,0.3,0.3v1.6C77.7,20.1,77.6,20.2,77.4,20.2z M77.4,16.3H74
					c-0.1,0-0.3-0.1-0.3-0.3v-1.5c0-0.1,0.1-0.3,0.3-0.3h3.4c0.1,0,0.3,0.1,0.3,0.3V16C77.7,16.2,77.6,16.3,77.4,16.3z M80.3,19.9
					v-1.6c0-0.1,0.1-0.3,0.3-0.3H84c0.1,0,0.3,0.1,0.3,0.3v1.6c0,0.1-0.1,0.3-0.3,0.3h-3.5C80.4,20.2,80.3,20.1,80.3,19.9z
					 M84.3,14.6v1.5c0,0.1-0.1,0.3-0.3,0.3h-3.5c-0.1,0-0.3-0.1-0.3-0.3v-1.5c0-0.1,0.1-0.3,0.3-0.3H84
					C84.2,14.3,84.3,14.5,84.3,14.6z"/>
				<path class="st0" d="M46,14.6v1.2c0,0.3-0.2,0.5-0.5,0.5h-4.9c-0.3,0-0.5-0.2-0.5-0.5v-1.2c0-0.3,0.2-0.5,0.5-0.5h4.9
					C45.8,14.1,46,14.4,46,14.6z"/>
				<path class="st0" d="M46,19.1v1.2c0,0.3-0.2,0.5-0.5,0.5h-4.9c-0.3,0-0.5-0.2-0.5-0.5v-1.2c0-0.3,0.2-0.5,0.5-0.5h4.9
					C45.8,18.6,46,18.8,46,19.1z"/>
				<circle class="st1" cx="74.4" cy="30.2" r="2.1"/>
			</g>
		</g>
		<g>
			<g>
				
					<linearGradient id="SVGID_1_" gradientUnits="userSpaceOnUse" x1="-1.280556e-02" y1="21.9852" x2="31.3129" y2="21.9852" gradientTransform="matrix(1 0 0 -1 0 42)">
					<stop  offset="0" style="stop-color:#00D9FF"/>
					<stop  offset="0.5" style="stop-color:#0088FF"/>
					<stop  offset="1" style="stop-color:#54D2FD"/>
				</linearGradient>
				<path class="st2" d="M30.4,0L13.6,6.2l0,0c-1.1,0.4-2.2,1-3,1.6l0,0C9.1,9,8,10.7,7.5,12.6c-0.1,0.2-0.1,0.5-0.2,0.7
					c-0.4,2,0,4,0.8,5.7c0.4,0.7,1.6,2.7,2.4,3.9c0.3,0.4,0.1,1-0.4,1.1l-3.9,1.4l-3.5,1.3c-0.2,0.1-0.4,0.3-0.4,0.5L0,39.1
					c-0.1,0.6,0.4,1.1,1,0.9l16.7-6.1c1.5-0.5,2.8-1.3,3.8-2.3l0,0c1.6-1.3,2.7-3.2,3.1-5.4c0.4-2,0-4-0.8-5.7
					c-0.6-1.3-1.6-2.4-2.8-3.3c-0.4-0.3-0.8-0.5-1.2-0.7l0.6-0.2l5.2-1.9l2.9-1c0.2-0.1,0.4-0.3,0.4-0.5L31.3,1
					C31.4,0.3,30.9-0.1,30.4,0z"/>
				
					<linearGradient id="SVGID_00000029750524672290452180000015356811857555417483_" gradientUnits="userSpaceOnUse" x1="22.772" y1="34.0386" x2="9.1723" y2="10.4832" gradientTransform="matrix(1 0 0 -1 0 42)">
					<stop  offset="0" style="stop-color:#00D9FF"/>
					<stop  offset="1" style="stop-color:#0088FF"/>
				</linearGradient>
				<path style="fill:url(#SVGID_00000029750524672290452180000015356811857555417483_);" d="M21,17.2c-0.4-0.3-0.8-0.5-1.2-0.7
					l0.6-0.2l5.2-1.9c-0.3-4.1-3.3-7.7-7.6-8.5c-1.5-0.3-3-0.1-4.4,0.3l0,0c-1.1,0.4-2.2,1-3,1.6l0,0C9.1,9,8,10.7,7.5,12.6
					c-0.1,0.2-0.1,0.5-0.2,0.7c-0.4,2,0,4,0.8,5.7c0.5,0.9,2.5,4,3,4.7l-4.8,1.8c0.4,4,3.4,7.4,7.6,8.2c2.8,0.5,5.5-0.3,7.5-2l0,0
					c1.6-1.3,2.7-3.2,3.1-5.4c0.4-2,0-4-0.8-5.7C23.1,19.2,22.2,18,21,17.2z"/>
			</g>
		</g>
	</g>
</g>
</svg>
