<?xml version="1.0" encoding="utf-8"?>
<!-- Generator: Adobe Illustrator 24.1.0, SVG Export Plug-In . SVG Version: 6.00 Build 0)  -->
<svg version="1.1" id="圖層_1" xmlns="http://www.w3.org/2000/svg" xmlns:xlink="http://www.w3.org/1999/xlink" x="0px" y="0px"
	 viewBox="0 0 25 25" style="enable-background:new 0 0 25 25;" xml:space="preserve">
<style type="text/css">
	.st0{fill-rule:evenodd;clip-rule:evenodd;fill:#004F93;}
</style>
<g id="Symbols">
	<g id="Footer-_x2F_-M-_x2F_-Homepage-_x2F_-cryptocurrency2" transform="translate(-273.000000, -960.000000)">
		<g id="Footer" transform="translate(10.000000, 30.000000)">
			<g id="footer-content" transform="translate(0.000000, 265.000000)">
				<g id="Payment" transform="translate(5.000000, 572.000000)">
					<g id="_x31_0coins" transform="translate(258.000000, 93.000000)">
						<g id="Group">
							<path id="Fill-1" class="st0" d="M3.6,23.3c-0.2,0.3-0.6,0.5-1,0.5c-0.7,0-1.2-0.4-1.2-1.2c0-0.7,0.4-1.1,1.2-1.1
								c0.4,0,0.8,0.2,1,0.5L3.7,22l1.1-0.9l-0.1-0.1c-0.5-0.6-1.2-0.9-2.1-0.9C1,20.2,0,21.1,0,22.6C0,24.1,1,25,2.6,25
								c0.9,0,1.6-0.3,2.1-0.9L4.8,24l-1.1-0.9L3.6,23.3z"/>
							<path id="Fill-3" class="st0" d="M7.8,23.8c-0.7,0-1.2-0.5-1.2-1.2c0-0.7,0.5-1.2,1.2-1.2c0.7,0,1.2,0.5,1.2,1.2
								C9,23.3,8.6,23.8,7.8,23.8 M7.8,20.2c-1.5,0-2.6,1-2.6,2.4C5.2,24,6.3,25,7.8,25c1.5,0,2.6-1,2.6-2.4
								C10.5,21.2,9.4,20.2,7.8,20.2"/>
							<polygon id="Fill-5" class="st0" points="11.5,24.9 12.9,24.9 12.9,20.3 11.5,20.3 							"/>
							<polygon id="Fill-7" class="st0" points="17.2,22.5 14.9,20.3 14.1,20.3 14.1,24.9 15.5,24.9 15.5,22.6 17.9,24.9 18.6,24.9 
								18.6,20.3 17.2,20.3 							"/>
							<path id="Fill-8" class="st0" d="M22,22c-0.6-0.1-0.9-0.2-0.9-0.4c0-0.2,0.4-0.2,0.5-0.2c0.4,0,0.8,0.1,1.2,0.3l0.1,0
								l0.6-1.1l-0.1-0.1c-0.5-0.2-1.1-0.3-1.8-0.3c-1.2,0-1.9,0.5-1.9,1.5c0,1.1,0.9,1.3,1.8,1.5c0.6,0.1,0.7,0.2,0.7,0.3
								c0,0.1,0,0.3-0.5,0.3c-0.4,0-1-0.1-1.5-0.4l-0.1-0.1l-0.5,1.1l0.1,0c0.7,0.3,1.2,0.4,2,0.4c1.6,0,1.9-0.8,1.9-1.5
								C23.6,22.5,22.8,22.2,22,22"/>
							<path id="Fill-9" class="st0" d="M12.4,4.7V3.2h1.3v1.1c0.3,0,0.7-0.1,1-0.1c0.1,0,0.2,0,0.3,0v-1h1.3v1.2
								c1,0.3,1.9,0.8,2.5,1.5L17,7.4c-0.4-0.6-1.2-1.1-2.2-1.1c-1.6,0-2.6,0.9-2.6,2.5c0,1.6,1,2.6,2.6,2.6c1,0,1.8-0.4,2.2-1
								l1.8,1.4c-0.6,0.7-1.4,1.2-2.5,1.5v1.2H15v-1c-0.1,0-0.2,0-0.3,0c-0.3,0-0.7,0-1-0.1v1.1h-1.3V13c-1.6-0.7-2.6-2.1-2.6-4.2
								C9.8,6.8,10.8,5.4,12.4,4.7L12.4,4.7z M6.3,12.3c1.3,3.3,4.5,5.7,8.3,5.7c4.9,0,9-4,9-9c0-4.9-4-8.9-9-8.9
								c-3.8,0-7,2.3-8.3,5.7V0.4H0v17.1h6.3L6.3,12.3L6.3,12.3z"/>
						</g>
					</g>
				</g>
			</g>
		</g>
	</g>
</g>
</svg>
