<?xml version="1.0" encoding="utf-8"?>
<!-- Generator: Adobe Illustrator 25.4.1, SVG Export Plug-In . SVG Version: 6.00 Build 0)  -->
<svg version="1.1" id="圖層_1" xmlns="http://www.w3.org/2000/svg" xmlns:xlink="http://www.w3.org/1999/xlink" x="0px" y="0px"
	 viewBox="0 0 16 15" style="enable-background:new 0 0 16 15;" xml:space="preserve">
<style type="text/css">
	.st0{filter:url(#Adobe_OpacityMaskFilter);}
	.st1{fill-rule:evenodd;clip-rule:evenodd;fill:#FFFFFF;}
	.st2{mask:url(#mask-2_00000119077458907546626320000012500862160781378954_);}
	.st3{fill-rule:evenodd;clip-rule:evenodd;fill:#59748A;fill-opacity:0.7;}
</style>
<g id="Spare-link-">
	<g id="Landing---SpareLink----m" transform="translate(-24.000000, -166.000000)">
		<g id="Group_00000113332092810239926430000006956413464677868731_" transform="translate(12.000000, 150.000000)">
			<g id="Group_00000136372510463831479590000011431248555500180871_" transform="translate(12.000000, 12.000000)">
				<g id="Icons-_x2F_-32-_x2F_-Arrows-_x2F_-Right" transform="translate(0.000000, 4.000000)">
					<g id="graphic" transform="translate(4.000000, 1.875000)">
						<g id="Arrow" transform="translate(3.600000, 5.625000) scale(-1, 1) translate(-3.600000, -5.625000) ">
						</g>
						<defs>
							<filter id="Adobe_OpacityMaskFilter" filterUnits="userSpaceOnUse" x="-4" y="-1.9" width="16" height="15">
								<feColorMatrix  type="matrix" values="1 0 0 0 0  0 1 0 0 0  0 0 1 0 0  0 0 0 1 0"/>
							</filter>
						</defs>
						
							<mask maskUnits="userSpaceOnUse" x="-4" y="-1.9" width="16" height="15" id="mask-2_00000119077458907546626320000012500862160781378954_">
							<g class="st0">
								<path id="path-1_00000028316285242110361180000008827875842878347912_" class="st1" d="M1.1,10.2c-0.4,0.3-0.4,0.9,0,1.2
									c0.4,0.3,0.9,0.3,1.3,0l5.4-5.1c0.4-0.3,0.4-0.9,0-1.2L2.3-0.1C2-0.5,1.4-0.5,1.1-0.1s-0.4,0.9,0,1.2l4.8,4.5L1.1,10.2z"/>
							</g>
						</mask>
						<g id="Group" class="st2">
							<g id="color_x2F_97A4B3" transform="translate(-4.000000, -1.875000)">
								<rect id="Rectangle" class="st3" width="16" height="15"/>
							</g>
						</g>
					</g>
				</g>
			</g>
		</g>
	</g>
</g>
</svg>
